<svg xmlns="http://www.w3.org/2000/svg" xmlns:xlink="http://www.w3.org/1999/xlink" contentStyleType="text/css" height="1076px" preserveAspectRatio="none" style="width:1074px;height:1076px;background:#1B1B1B;" version="1.1" viewBox="0 0 1074 1076" width="1074px" zoomAndPan="magnify"><defs/><g><rect fill="#1B1B1B" height="1076" style="stroke:none;stroke-width:1.0;" width="1074" x="0" y="0"/><!--cluster solver_cycle_async--><g id="cluster_solver_cycle_async"><rect fill="none" height="1063.18" rx="2.5" ry="2.5" style="stroke:#E7E7E7;stroke-width:1.0;" width="1061" x="7" y="7"/><path d="M258,7 L258,16.2969 L248,26.2969 L7,26.2969 " fill="none" style="stroke:#E7E7E7;stroke-width:1.0;"/><a href="../block_states/#Armon.solver_cycle_async" target="_top" title="../block_states/#Armon.solver_cycle_async" xlink:actuate="onRequest" xlink:href="../block_states/#Armon.solver_cycle_async" xlink:show="new" xlink:title="../block_states/#Armon.solver_cycle_async" xlink:type="simple"><text fill="#0000FF" font-family="monospace" font-size="14" font-weight="bold" lengthAdjust="spacing" text-decoration="underline" textLength="144" x="10" y="20.9951">solver_cycle_async</text></a><text fill="#FFFFFF" font-family="sans-serif" font-size="14" font-weight="bold" lengthAdjust="spacing" textLength="92" x="159" y="20.9951">and logging</text></g><!--cluster Thread loop--><g id="cluster_Thread loop"><rect fill="none" height="773.1" rx="2.5" ry="2.5" style="stroke:#E7E7E7;stroke-width:1.0;" width="827" x="23" y="68"/><text fill="#FFFFFF" font-family="sans-serif" font-size="14" font-weight="bold" lengthAdjust="spacing" textLength="95" x="389" y="82.9951">Thread loop</text></g><!--entity thread_logging--><g id="elem_thread_logging"><rect fill="#313139" height="134.0781" rx="2.5" ry="2.5" style="stroke:#E7E7E7;stroke-width:0.5;" width="201" x="222.5" y="920.1"/><text fill="#FFFFFF" font-family="sans-serif" font-size="14" lengthAdjust="spacing" textLength="181" x="232.5" y="943.0951">Record about the thread's</text><text fill="#FFFFFF" font-family="sans-serif" font-size="14" lengthAdjust="spacing" textLength="135" x="232.5" y="959.392">blocks of this cycle:</text><ellipse cx="238" cy="971.4906" fill="#FFFFFF" rx="2.5" ry="2.5" style="stroke:#FFFFFF;stroke-width:0.0;"/><text fill="#FFFFFF" font-family="sans-serif" font-size="14" lengthAdjust="spacing" textLength="152" x="244.5" y="975.6889">total thread cycle time</text><ellipse cx="238" cy="987.7875" fill="#FFFFFF" rx="2.5" ry="2.5" style="stroke:#FFFFFF;stroke-width:0.0;"/><text fill="#FFFFFF" font-family="sans-serif" font-size="14" lengthAdjust="spacing" textLength="123" x="244.5" y="991.9857">total MPI wait time</text><ellipse cx="238" cy="1004.0844" fill="#FFFFFF" rx="2.5" ry="2.5" style="stroke:#FFFFFF;stroke-width:0.0;"/><text fill="#FFFFFF" font-family="sans-serif" font-size="14" lengthAdjust="spacing" textLength="115" x="244.5" y="1008.2826">active wait count</text><ellipse cx="238" cy="1020.3813" fill="#FFFFFF" rx="2.5" ry="2.5" style="stroke:#FFFFFF;stroke-width:0.0;"/><a href="../block_states/#Armon.block_state_machine" target="_top" title="../block_states/#Armon.block_state_machine" xlink:actuate="onRequest" xlink:href="../block_states/#Armon.block_state_machine" xlink:show="new" xlink:title="../block_states/#Armon.block_state_machine" xlink:type="simple"><text fill="#0000FF" font-family="sans-serif" font-size="14" lengthAdjust="spacing" text-decoration="underline" textLength="145" x="244.5" y="1024.5795">block_state_machine</text></a><text fill="#FFFFFF" font-family="sans-serif" font-size="14" lengthAdjust="spacing" textLength="66" x="240.5" y="1040.8764">call count</text></g><!--entity block_log_record--><g id="elem_block_log_record"><rect fill="#313139" height="46.2969" rx="2.5" ry="2.5" style="stroke:#E7E7E7;stroke-width:0.5;" width="193" x="858.5" y="322.24"/><path d="M922.8333,322.24 L922.8333,327.24 L915.8333,334.24 L858.5,334.24 " fill="none" style="stroke:#E7E7E7;stroke-width:0.5;"/><a href="../grid/#Armon.BlockLogEvent" target="_top" title="../grid/#Armon.BlockLogEvent" xlink:actuate="onRequest" xlink:href="../grid/#Armon.BlockLogEvent" xlink:show="new" xlink:title="../grid/#Armon.BlockLogEvent" xlink:type="simple"><text fill="#0000FF" font-family="monospace" font-size="14" lengthAdjust="spacing" text-decoration="underline" textLength="104" x="873.5" y="355.2351">BlockLogEvent</text></a><text fill="#FFFFFF" font-family="sans-serif" font-size="14" lengthAdjust="spacing" textLength="45" x="981.5" y="355.2351">record</text></g><!--entity thread_log_record--><g id="elem_thread_log_record"><rect fill="#313139" height="46.2969" rx="2.5" ry="2.5" style="stroke:#E7E7E7;stroke-width:0.5;" width="201" x="502.5" y="963.99"/><path d="M569.5,963.99 L569.5,968.99 L562.5,975.99 L502.5,975.99 " fill="none" style="stroke:#E7E7E7;stroke-width:0.5;"/><a href="../grid/#Armon.ThreadLogEvent" target="_top" title="../grid/#Armon.ThreadLogEvent" xlink:actuate="onRequest" xlink:href="../grid/#Armon.ThreadLogEvent" xlink:show="new" xlink:title="../grid/#Armon.ThreadLogEvent" xlink:type="simple"><text fill="#0000FF" font-family="monospace" font-size="14" lengthAdjust="spacing" text-decoration="underline" textLength="112" x="517.5" y="996.9851">ThreadLogEvent</text></a><text fill="#FFFFFF" font-family="sans-serif" font-size="14" lengthAdjust="spacing" textLength="45" x="633.5" y="996.9851">record</text></g><!--entity stored_in_block_grid--><g id="elem_stored_in_block_grid"><rect fill="#313139" height="36.2969" rx="2.5" ry="2.5" style="stroke:#E7E7E7;stroke-width:0.5;" width="262" x="761" y="968.99"/><text fill="#FFFFFF" font-family="sans-serif" font-size="14" lengthAdjust="spacing" textLength="166" x="771" y="991.9851">All logs are stored in the</text><a href="../grid/#Armon.BlockGrid" target="_top" title="../grid/#Armon.BlockGrid" xlink:actuate="onRequest" xlink:href="../grid/#Armon.BlockGrid" xlink:show="new" xlink:title="../grid/#Armon.BlockGrid" xlink:type="simple"><text fill="#0000FF" font-family="monospace" font-size="14" lengthAdjust="spacing" text-decoration="underline" textLength="72" x="941" y="991.9851">BlockGrid</text></a></g><text fill="#FFFFFF" font-family="sans-serif" font-size="14" lengthAdjust="spacing" textLength="132" x="191" y="46.6982">Start of thread loop</text><rect fill="#313139" height="12" style="stroke:#E7E7E7;stroke-width:1.5;" width="12" x="251" y="62"/><text fill="#FFFFFF" font-family="sans-serif" font-size="14" lengthAdjust="spacing" textLength="127" x="232.5" y="860.0951">End of thread loop</text><rect fill="#313139" height="12" style="stroke:#E7E7E7;stroke-width:1.5;" width="12" x="290" y="835.1"/><g id="elem_apply_on_all_blocs"><ellipse cx="297.9979" cy="166.0276" fill="#313139" rx="83.1379" ry="19.0276" style="stroke:#E7E7E7;stroke-width:0.5;"/><text fill="#FFFFFF" font-family="sans-serif" font-size="14" lengthAdjust="spacing" textLength="126" x="234.4514" y="169.0594">Apply on all blocks</text></g><!--entity bsm--><g id="elem_bsm"><rect fill="#313139" height="152.6719" rx="2.5" ry="2.5" style="stroke:#E7E7E7;stroke-width:0.5;" width="227" x="184.5" y="269.06"/><a href="../block_states/#Armon.block_state_machine" target="_top" title="../block_states/#Armon.block_state_machine" xlink:actuate="onRequest" xlink:href="../block_states/#Armon.block_state_machine" xlink:show="new" xlink:title="../block_states/#Armon.block_state_machine" xlink:type="simple"><text fill="#0000FF" font-family="monospace" font-size="14" lengthAdjust="spacing" text-decoration="underline" textLength="152" x="194.5" y="285.0551">block_state_machine</text></a><ellipse cx="200" cy="297.1538" fill="#FFFFFF" rx="2.5" ry="2.5" style="stroke:#FFFFFF;stroke-width:0.0;"/><text fill="#FFFFFF" font-family="sans-serif" font-size="14" lengthAdjust="spacing" textLength="89" x="206.5" y="301.352">Run all steps</text><ellipse cx="200" cy="313.4506" fill="#FFFFFF" rx="2.5" ry="2.5" style="stroke:#FFFFFF;stroke-width:0.0;"/><text fill="#FFFFFF" font-family="sans-serif" font-size="14" lengthAdjust="spacing" textLength="164" x="206.5" y="317.6489">If state did not advance,</text><text fill="#FFFFFF" font-family="sans-serif" font-size="14" lengthAdjust="spacing" textLength="115" x="202.5" y="333.9457">count it as a stall</text><ellipse cx="200" cy="346.0444" fill="#FFFFFF" rx="2.5" ry="2.5" style="stroke:#FFFFFF;stroke-width:0.0;"/><text fill="#FFFFFF" font-family="sans-serif" font-size="14" lengthAdjust="spacing" textLength="137" x="206.5" y="350.2426">If state did advance,</text><text fill="#FFFFFF" font-family="sans-serif" font-size="14" lengthAdjust="spacing" textLength="190" x="202.5" y="366.5395">record before/after metrics:</text><text fill="#FFFFFF" font-family="sans-serif" font-size="14" lengthAdjust="spacing" textLength="125" x="202.5" y="382.8364">- n&#176; of steps done</text><text fill="#FFFFFF" font-family="sans-serif" font-size="14" lengthAdjust="spacing" textLength="199" x="202.5" y="399.1332">- which variables where used</text><text fill="#FFFFFF" font-family="sans-serif" font-size="14" lengthAdjust="spacing" textLength="118" x="202.5" y="415.4301">- amount of stalls</text></g><!--entity if_progess--><g id="elem_if_progess"><polygon fill="#313139" points="451,511.88,364.5,498.73,191.5,498.73,105,511.88,191.5,525.02,364.5,525.02,451,511.88" style="stroke:#E7E7E7;stroke-width:0.5;"/><text fill="#FFFFFF" font-family="sans-serif" font-size="14" lengthAdjust="spacing" textLength="173" x="191.5" y="516.7251">Any progress on a block?</text></g><!--entity if_busy_wait--><g id="elem_if_busy_wait"><polygon fill="#313139" points="834,511.88,751.5,498.73,586.5,498.73,504,511.88,586.5,525.02,751.5,525.02,834,511.88" style="stroke:#E7E7E7;stroke-width:0.5;"/><text fill="#FFFFFF" font-family="sans-serif" font-size="14" lengthAdjust="spacing" textLength="165" x="586.5" y="516.7251">No progress for a while?</text></g><!--entity if_thread_done--><g id="elem_if_thread_done"><polygon fill="#313139" points="433,674.06,364.5,660.91,227.5,660.91,159,674.06,227.5,687.21,364.5,687.21,433,674.06" style="stroke:#E7E7E7;stroke-width:0.5;"/><text fill="#FFFFFF" font-family="sans-serif" font-size="14" lengthAdjust="spacing" textLength="137" x="227.5" y="678.9051">All blocks are done?</text></g><g id="elem_tmp"><polygon fill="#313139" points="191,215.06,203,227.06,191,239.06,179,227.06,191,215.06" style="stroke:#E7E7E7;stroke-width:0.5;"/></g><!--entity active_wait--><g id="elem_active_wait"><path d="M536.0165,612.4851 C541.2219,604.3652 547.2358,603.3742 553.4803,611.3583 C557.6171,602.4291 564.3695,602.0505 569.546,610.3912 C573.8857,602.3903 580.7942,602.9451 585.3348,610.1831 C590.1236,600.863 598.6661,601.5049 603.5201,610.117 C607.5921,602.515 615.8768,601.9711 620.2844,609.7513 C624.0421,601.7192 630.9433,600.9641 636.91,607.1724 C642.3396,600.0678 651.23,598.6944 655.3403,608.6018 C660.9029,600.0485 667.3771,601.817 672.5834,608.9923 C678.0607,601.8993 683.8253,602.4796 687.9561,610.3734 C693.2811,601.2643 701.4716,602.8022 706.233,610.9697 C711.2101,603.7059 718.2175,602.7693 722.5837,611.5907 C731.8133,601.7485 741.0548,605.0444 745,617.02 C745.7152,617.1537 746.047,617.567 745.5482,618.2443 C755.6483,623.3551 756.982,629.7412 747.9182,637.2426 C758.6028,640.6745 759.6068,648.9158 752.6367,656.6419 C760.1607,661.6038 761.7043,669.0553 753.3194,674.6213 C762.5596,680.7151 760.5655,688.7605 751.6935,693.2757 C760.3434,700.1457 759.5499,708.2627 749.3148,712.8362 C756.0811,725.7532 754.5545,735.6266 738,738.0981 C739.2043,738.2228 739.5355,738.8135 738.9006,739.8719 C735.4396,745.6175 728.7562,746.939 725.381,739.7821 C721.8282,747.2221 717.1711,747.5624 711.3962,742.2116 C706.8913,751.3864 701.4302,751.7106 695.0649,744.0121 C690.6613,749.9587 686.3038,748.9662 682.2728,743.5911 C679.2576,751.5595 672.4008,754.0794 666.378,746.7076 C661.9838,752.5587 656.1412,754.3756 651.8336,746.615 C647.8878,753.5474 642.1167,753.5811 637.0397,747.9467 C632.806,754.2527 628.6414,754.0931 623.6568,748.8141 C617.913,754.2466 612.4673,754.3507 609.7747,745.7877 C603.9743,752.8084 598.8801,753.0428 593.9373,744.8925 C588.0181,751.7101 583.5314,749.158 579.763,742.6114 C574.2828,750.6326 568.3458,750.6595 563.1436,742.3288 C557.8057,747.0294 553.7904,747.5774 550.7757,739.9903 C540.2776,748.0418 529.2334,745.1443 527,731.0981 C528.5321,730.3817 529.8142,731.0359 529.8439,732.8122 C518.3786,727.0166 519.7459,720.3967 527.209,712.1833 C519.1111,707.7356 515.8379,703.0207 523.655,695.2356 C514.2214,689.3312 512.9872,680.9427 523.2201,674.6234 C515.9632,667.1485 517.4124,660.7671 525.9723,655.5778 C518.7374,650.0861 517.2564,642.1178 526.7237,637.3132 C516.0242,627.1088 521.1075,613.9348 534,610.02 C535.7894,609.9601 536.4938,610.6907 536.0165,612.4851 " fill="#22CCAA" style="stroke:#000000;stroke-width:1.0;"/><text fill="#FFFFFF" font-family="sans-serif" font-size="14" font-style="italic" lengthAdjust="spacing" textLength="43" x="614.5" y="630.0151">&#171;mpi&#187;</text><text fill="#FFFFFF" font-family="monospace" font-size="14" lengthAdjust="spacing" textLength="64" x="534" y="646.312">MPI.Wait</text><text fill="#FFFFFF" font-family="sans-serif" font-size="14" lengthAdjust="spacing" textLength="74" x="602" y="646.312">on the first</text><text fill="#FFFFFF" font-family="sans-serif" font-size="14" lengthAdjust="spacing" textLength="204" x="534" y="662.6089">block with a pending request.</text><text fill="#FFFFFF" font-family="sans-serif" font-size="14" lengthAdjust="spacing" textLength="4" x="534" y="678.9057">&#160;</text><text fill="#FFFFFF" font-family="sans-serif" font-size="14" lengthAdjust="spacing" textLength="128" x="534" y="695.2026">Otherwise we do a</text><text fill="#FFFFFF" font-family="monospace" font-size="14" lengthAdjust="spacing" textLength="48" x="666" y="695.2026">usleep</text><text fill="#FFFFFF" font-family="sans-serif" font-size="14" lengthAdjust="spacing" textLength="4" x="714" y="695.2026">,</text><text fill="#FFFFFF" font-family="sans-serif" font-size="14" lengthAdjust="spacing" textLength="198" x="534" y="711.4995">with twice the previous delay</text><text fill="#FFFFFF" font-family="sans-serif" font-size="14" lengthAdjust="spacing" textLength="190" x="534" y="727.7964">for each consecutive sleep.</text></g><!--link loop_start to apply_on_all_blocs--><g id="link_loop_start_apply_on_all_blocs"><path codeLine="54" d="M259.09,73.89 C264.74,87.12 278.1642,118.5718 287.8042,141.1518 " fill="none" id="loop_start-to-apply_on_all_blocs" style="stroke:#E7E7E7;stroke-width:1.0;"/><polygon fill="#E7E7E7" points="290.16,146.67,290.305,136.8222,288.1968,142.0715,282.9475,139.9633,290.16,146.67" style="stroke:#E7E7E7;stroke-width:1.0;"/></g><!--link apply_on_all_blocs to bsm--><g id="link_apply_on_all_blocs_bsm"><path codeLine="55" d="M298,185.34 C298,205.17 298,232.09 298,262.85 " fill="none" id="apply_on_all_blocs-to-bsm" style="stroke:#E7E7E7;stroke-width:1.0;"/><polygon fill="#E7E7E7" points="298,268.85,302,259.85,298,263.85,294,259.85,298,268.85" style="stroke:#E7E7E7;stroke-width:1.0;"/></g><!--link bsm to if_progess--><g id="link_bsm_if_progess"><path codeLine="56" d="M288.82,421.89 C285.25,451.28 282.2534,475.8738 280.2434,492.4238 " fill="none" id="bsm-to-if_progess" style="stroke:#E7E7E7;stroke-width:1.0;"/><polygon fill="#E7E7E7" points="279.52,498.38,284.5759,489.9279,280.1228,493.4165,276.6343,488.9634,279.52,498.38" style="stroke:#E7E7E7;stroke-width:1.0;"/></g><!--link if_progess to if_busy_wait--><g id="link_if_progess_if_busy_wait"><path codeLine="57" d="M454.05,511.88 C469.66,511.88 479.44,511.88 494.98,511.88 " fill="none" id="if_progess-to-if_busy_wait" style="stroke:#E7E7E7;stroke-width:1.0;"/><polygon fill="#E7E7E7" points="500.98,511.88,491.98,507.88,495.98,511.88,491.98,515.88,500.98,511.88" style="stroke:#E7E7E7;stroke-width:1.0;"/><text fill="#FFFFFF" font-family="sans-serif" font-size="13" lengthAdjust="spacing" textLength="16" x="469.5" y="504.9469">no</text></g><!--link if_progess to if_thread_done--><g id="link_if_progess_if_thread_done"><path codeLine="58" d="M279.41,525.44 C282.78,555.39 290.5715,624.7074 293.9215,654.5874 " fill="none" id="if_progess-to-if_thread_done" style="stroke:#E7E7E7;stroke-width:1.0;"/><polygon fill="#E7E7E7" points="294.59,660.55,297.5623,651.1604,294.0329,655.5811,289.6122,652.0517,294.59,660.55" style="stroke:#E7E7E7;stroke-width:1.0;"/><text fill="#FFFFFF" font-family="sans-serif" font-size="13" lengthAdjust="spacing" textLength="22" x="286" y="568.0869">yes</text></g><!--link if_busy_wait to if_thread_done--><g id="link_if_busy_wait_if_thread_done"><path codeLine="59" d="M639.73,525.44 C570.09,555.35 400.6631,628.1123 330.9031,658.0723 " fill="none" id="if_busy_wait-to-if_thread_done" style="stroke:#E7E7E7;stroke-width:1.0;"/><polygon fill="#E7E7E7" points="325.39,660.44,335.2381,660.5638,329.9842,658.4669,332.0811,653.2131,325.39,660.44" style="stroke:#E7E7E7;stroke-width:1.0;"/><text fill="#FFFFFF" font-family="sans-serif" font-size="13" lengthAdjust="spacing" textLength="16" x="570" y="568.0869">no</text></g><!--link if_busy_wait to active_wait--><g id="link_if_busy_wait_active_wait"><path codeLine="60" d="M660.91,525.24 C656.01,533.36 650.13,544.42 647,555.02 C642.63,569.83 640.5342,580.1258 638.8242,595.7158 " fill="none" id="if_busy_wait-to-active_wait" style="stroke:#E7E7E7;stroke-width:1.0;"/><polygon fill="#E7E7E7" points="638.17,601.68,643.1274,593.1698,638.7152,596.7098,635.1751,592.2975,638.17,601.68" style="stroke:#E7E7E7;stroke-width:1.0;"/><text fill="#FFFFFF" font-family="sans-serif" font-size="13" lengthAdjust="spacing" textLength="22" x="648" y="568.0869">yes</text></g><!--reverse link if_thread_done to active_wait--><g id="link_if_thread_done_active_wait"><path codeLine="61" d="M441.45,674.06 C469.26,674.06 491.07,674.06 518.88,674.06 " fill="none" id="if_thread_done-backto-active_wait" style="stroke:#E7E7E7;stroke-width:1.0;"/><polygon fill="#E7E7E7" points="435.45,674.06,444.45,678.06,440.45,674.06,444.45,670.06,435.45,674.06" style="stroke:#E7E7E7;stroke-width:1.0;"/></g><!--link tmp to if_thread_done--><g id="link_tmp_if_thread_done"><path codeLine="62" d="M186.5,234.8 C181.33,242.75 172.81,256.47 167,269.06 C142.03,323.17 59.63,472.09 87,525.02 C123.76,596.12 212.16,640.42 261.4,660.47 " fill="none" id="tmp-if_thread_done" style="stroke:#E7E7E7;stroke-width:1.0;"/><text fill="#FFFFFF" font-family="sans-serif" font-size="13" lengthAdjust="spacing" textLength="16" x="90" y="464.7969">no</text></g><!--reverse link apply_on_all_blocs to tmp--><g id="link_apply_on_all_blocs_tmp"><path codeLine="63" d="M261.7969,186.9992 C238.0969,200.0792 212.42,214.24 198.44,221.95 " fill="none" id="apply_on_all_blocs-backto-tmp" style="stroke:#E7E7E7;stroke-width:1.0;"/><polygon fill="#E7E7E7" points="267.05,184.1,257.2376,184.9467,262.6724,186.516,261.1032,191.9508,267.05,184.1" style="stroke:#E7E7E7;stroke-width:1.0;"/></g><!--link if_thread_done to loop_end--><g id="link_if_thread_done_loop_end"><path codeLine="64" d="M292.38,687.5 C286.58,709.05 276.4,754.71 282,793.1 C284.31,808.94 288.6056,821.2678 291.8756,829.6778 " fill="none" id="if_thread_done-to-loop_end" style="stroke:#E7E7E7;stroke-width:1.0;"/><polygon fill="#E7E7E7" points="294.05,835.27,294.5166,825.4322,292.238,830.6099,287.0604,828.3313,294.05,835.27" style="stroke:#E7E7E7;stroke-width:1.0;"/><text fill="#FFFFFF" font-family="sans-serif" font-size="13" lengthAdjust="spacing" textLength="22" x="283" y="789.1669">yes</text></g><!--link bsm to block_log_record--><g id="link_bsm_block_log_record"><path codeLine="78" d="M411.88,345.39 C560.66,345.39 703.43,345.39 852.2,345.39 " fill="none" id="bsm-to-block_log_record" style="stroke:#E7E7E7;stroke-width:1.0;"/><polygon fill="#E7E7E7" points="858.2,345.39,849.2,341.39,853.2,345.39,849.2,349.39,858.2,345.39" style="stroke:#E7E7E7;stroke-width:1.0;"/></g><!--link loop_end to thread_logging--><g id="link_loop_end_thread_logging"><path codeLine="81" d="M296.9,846.89 C299.09,858.61 303.8645,884.0427 309.4845,914.0227 " fill="none" id="loop_end-to-thread_logging" style="stroke:#E7E7E7;stroke-width:1.0;"/><polygon fill="#E7E7E7" points="310.59,919.92,312.8633,910.3371,309.6688,915.0056,305.0002,911.8111,310.59,919.92" style="stroke:#E7E7E7;stroke-width:1.0;"/></g><!--link thread_logging to thread_log_record--><g id="link_thread_logging_thread_log_record"><path codeLine="82" d="M423.9,987.14 C450.02,987.14 470.14,987.14 496.26,987.14 " fill="none" id="thread_logging-to-thread_log_record" style="stroke:#E7E7E7;stroke-width:1.0;"/><polygon fill="#E7E7E7" points="502.26,987.14,493.26,983.14,497.26,987.14,493.26,991.14,502.26,987.14" style="stroke:#E7E7E7;stroke-width:1.0;"/></g><!--link thread_log_record to stored_in_block_grid--><g id="link_thread_log_record_stored_in_block_grid"><path codeLine="88" d="M703.75,987.14 C722.75,987.14 735.75,987.14 754.74,987.14 " fill="none" id="thread_log_record-to-stored_in_block_grid" style="stroke:#E7E7E7;stroke-width:1.0;"/><polygon fill="#E7E7E7" points="760.74,987.14,751.74,983.14,755.74,987.14,751.74,991.14,760.74,987.14" style="stroke:#E7E7E7;stroke-width:1.0;"/></g><!--link block_log_record to stored_in_block_grid--><g id="link_block_log_record_stored_in_block_grid"><path codeLine="89" d="M941.08,368.87 C923.36,399.69 895,457.38 895,510.88 C895,510.88 895,510.88 895,842.1 C895,887.87 893.6652,935.8132 892.7852,962.8532 " fill="none" id="block_log_record-to-stored_in_block_grid" style="stroke:#E7E7E7;stroke-width:1.0;"/><polygon fill="#E7E7E7" points="892.59,968.85,896.8806,959.9849,892.7526,963.8526,888.8849,959.7247,892.59,968.85" style="stroke:#E7E7E7;stroke-width:1.0;"/></g><!--SRC=[hLNDZjiu3BxxAGZri43HP3ez5eCKqqLH5EZ-e5kWXy70K6Gc4KQMl9ASD5ZCE-qpzCbAIHxRiZtJ7ffJB7xyI94VAQwKETNogzJxehXo_gnmKwphHi9_1S1RBkxUMzFgwdUZZ8Ldhru9mJbPFagDdmzIt6bq3YwxauJQAd8hxejYtV3MuJ8JukNbovS_oNHrqMLMx2ol4HXZDpTilRxOAYFkIkUvHtVnxDhMHg-TKKUqfJWBXILtPoqOpCzkRna3hYjGPh-dszE7Mu1HyfGHW4NXkTuhYltvO947FzEm1tFuDSPwgO7zuxdrO7RWnq1Y3tz2hjPdFgRrmDvH9e-veAw6A5HGmQcel6dKkJIwv4gLeGmERdfG-5q701WD181O9zVRRmS-mMq5MrTFl9ygyEYihBauKBiOB1o64cUap-5Jc_9n7XitiNtOGNI7IbQWZGTU7RaM-2B3KSQa8W_IX_hmuABKKqoFi513JRWvxep52xxpQA56RwLmhoVG5UXl_uVknAoXCXfdY1Cf-017RYNVAdJqZHP3iwePbDVn0f6FSb_ioW6_yZtrZbthCpJMx6qOZj3CLEWtKHroLmORcUQEVvh1Zwv8ZfIYmjvnsxfpUUBIByJi1GESBX7ksxibWPPP3If9LoBz-hePwKgPbeell3nYZ0DNLn3socOpazeVVtzOVo48JIJ5zmU4dRJEPwYO49oaFz1L6Xe9cbbguhyjEhykCkXVn61FaeRa5B8dF6EjKuWDOxaC8fq_IO4nQcFnA4rBBKR5pnaob119rgG-JHFOXcj1v5mlzMyOTLXLvgHNcuM1xT4BixmY3vhA7X8cD9mjj7muWWJeMmklQOuMSGauQYP1pvXn3YoBw9mu1u-xdlEEBIk5Ep-Zxg6a9Y9xCd24T2nFb7T24J9ysAkZzEwdYxxpwTw7aMW_fTN1js5p1zqav6z3n6vwuaAN3k9xCcoLv-0DJVx3iezMyBB66O860sAj9jPKncIAwt1a-nLxUoHz4TRr4AFJ-EGPtbjPFKHv6mW_clsx8shF8FkCZsxQl76XfE1KuJ8T5htKDtFRZmAdTtc8d7zFGm_T7SVkTH54aWiWsYUQo41PdeECdAS7fYgbBjEDGieZCOLbIyvfrIOioBG47wtkUpheAXl-zkzirvnPIY7FfJIANgiP-37q_NS0]--></g></svg>