<svg xmlns="http://www.w3.org/2000/svg" xmlns:xlink="http://www.w3.org/1999/xlink" contentStyleType="text/css" height="864px" preserveAspectRatio="none" style="width:1928px;height:864px;background:#FFFFFF;" version="1.1" viewBox="0 0 1928 864" width="1928px" zoomAndPan="magnify"><defs/><g><!--cluster pkg_block_grid--><g id="cluster_pkg_block_grid"><path d="M8.5,6 L89.5,6 A3.75,3.75 0 0 1 92,8.5 L99,28.2969 L1918.5,28.2969 A2.5,2.5 0 0 1 1921,30.7969 L1921,854.7 A2.5,2.5 0 0 1 1918.5,857.2 L8.5,857.2 A2.5,2.5 0 0 1 6,854.7 L6,8.5 A2.5,2.5 0 0 1 8.5,6 " fill="none" style="stroke:#000000;stroke-width:1.5;"/><line style="stroke:#000000;stroke-width:1.5;" x1="6" x2="99" y1="28.2969" y2="28.2969"/><text fill="#000000" font-family="sans-serif" font-size="14" font-weight="bold" lengthAdjust="spacing" textLength="80" x="10" y="20.9951">Block Grid</text></g><!--cluster block_grid--><g id="cluster_block_grid"><rect fill="none" height="463.82" rx="2.5" ry="2.5" style="stroke:#181818;stroke-width:1.0;" width="923" x="30" y="205.49"/><path d="M112,205.49 L112,214.7869 L102,224.7869 L30,224.7869 " fill="none" style="stroke:#181818;stroke-width:1.0;"/><text fill="#000000" font-family="monospace" font-size="14" font-weight="bold" lengthAdjust="spacing" textLength="72" x="33" y="219.4851">BlockGrid</text></g><!--cluster grid_blocks--><g id="cluster_grid_blocks"><polygon fill="none" points="246,266.49,256,256.49,921,256.49,921,627.31,911,637.31,246,637.31,246,266.49" style="stroke:#181818;stroke-width:1.0;"/><line style="stroke:#181818;stroke-width:1.0;" x1="911" x2="921" y1="266.49" y2="256.49"/><line style="stroke:#181818;stroke-width:1.0;" x1="246" x2="911" y1="266.49" y2="266.49"/><line style="stroke:#181818;stroke-width:1.0;" x1="911" x2="911" y1="266.49" y2="637.31"/><text fill="#000000" font-family="sans-serif" font-size="14" font-weight="bold" lengthAdjust="spacing" textLength="89" x="535" y="282.4851">Grid blocks</text></g><!--cluster local_task_block--><g id="cluster_local_task_block"><rect fill="none" height="331.93" rx="2.5" ry="2.5" style="stroke:#181818;stroke-width:1.0;" width="904" x="985" y="493.27"/><path d="M1107,493.27 L1107,502.5669 L1097,512.5669 L985,512.5669 " fill="none" style="stroke:#181818;stroke-width:1.0;"/><text fill="#000000" font-family="monospace" font-size="14" font-weight="bold" lengthAdjust="spacing" textLength="112" x="988" y="507.2651">LocalTaskBlock</text></g><!--entity block_grid_dimensions--><g id="elem_block_grid_dimensions"><rect fill="#F1F1F1" height="68.8906" rx="2.5" ry="2.5" style="stroke:#181818;stroke-width:0.5;" width="220" x="24" y="57.3"/><text fill="#000000" font-family="monospace" font-size="14" lengthAdjust="spacing" textLength="120" x="34" y="80.2951">grid_dimensions</text><text fill="#000000" font-family="sans-serif" font-size="14" lengthAdjust="spacing" textLength="200" x="34" y="96.592">Computes the dimensions of</text><text fill="#000000" font-family="sans-serif" font-size="14" lengthAdjust="spacing" textLength="53" x="34" y="112.8889">the grid</text></g><!--entity block_grid_mem_required--><g id="elem_block_grid_mem_required"><rect fill="#F1F1F1" height="68.8906" rx="2.5" ry="2.5" style="stroke:#181818;stroke-width:0.5;" width="209" x="279.5" y="57.3"/><a href="../parameters_and_device/#Armon.memory_required" target="_top" title="../parameters_and_device/#Armon.memory_required" xlink:actuate="onRequest" xlink:href="../parameters_and_device/#Armon.memory_required" xlink:show="new" xlink:title="../parameters_and_device/#Armon.memory_required" xlink:type="simple"><text fill="#0000FF" font-family="monospace" font-size="14" lengthAdjust="spacing" text-decoration="underline" textLength="120" x="289.5" y="80.2951">memory_required</text></a><text fill="#000000" font-family="sans-serif" font-size="14" lengthAdjust="spacing" textLength="189" x="289.5" y="96.592">Estimates the total memory</text><text fill="#000000" font-family="sans-serif" font-size="14" lengthAdjust="spacing" textLength="92" x="289.5" y="112.8889">required for a</text><a href="../grid/#Armon.BlockGrid" target="_top" title="../grid/#Armon.BlockGrid" xlink:actuate="onRequest" xlink:href="../grid/#Armon.BlockGrid" xlink:show="new" xlink:title="../grid/#Armon.BlockGrid" xlink:type="simple"><text fill="#0000FF" font-family="monospace" font-size="14" lengthAdjust="spacing" text-decoration="underline" textLength="72" x="385.5" y="112.8889">BlockGrid</text></a></g><!--entity block_grid_RemoteBlockRegions--><g id="elem_block_grid_RemoteBlockRegions"><rect fill="#F1F1F1" height="36.2969" rx="2.5" ry="2.5" style="stroke:#181818;stroke-width:0.5;" width="164" x="466" y="748.61"/><text fill="#000000" font-family="monospace" font-size="14" lengthAdjust="spacing" textLength="144" x="476" y="771.6051">RemoteBlockRegions</text></g><!--entity block_grid_EdgeBlockRegions--><g id="elem_block_grid_EdgeBlockRegions"><rect fill="#F1F1F1" height="36.2969" rx="2.5" ry="2.5" style="stroke:#181818;stroke-width:0.5;" width="148" x="634" y="73.6"/><text fill="#000000" font-family="monospace" font-size="14" lengthAdjust="spacing" textLength="128" x="644" y="96.5951">EdgeBlockRegions</text></g><!--entity block_grid_row_iterator--><g id="elem_block_grid_row_iterator"><rect fill="#F1F1F1" height="52.5938" rx="2.5" ry="2.5" style="stroke:#181818;stroke-width:0.5;" width="192" x="817" y="65.45"/><a href="../grid/#Armon.BlockRowIterator" target="_top" title="../grid/#Armon.BlockRowIterator" xlink:actuate="onRequest" xlink:href="../grid/#Armon.BlockRowIterator" xlink:show="new" xlink:title="../grid/#Armon.BlockRowIterator" xlink:type="simple"><text fill="#0000FF" font-family="monospace" font-size="14" lengthAdjust="spacing" text-decoration="underline" textLength="128" x="827" y="88.4451">BlockRowIterator</text></a><text fill="#000000" font-family="sans-serif" font-size="14" lengthAdjust="spacing" textLength="172" x="827" y="104.742">Iterates a grid row by row</text></g><!--entity block_grid_iter_blocks--><g id="elem_block_grid_iter_blocks"><rect fill="#F1F1F1" height="101.4844" rx="2.5" ry="2.5" style="stroke:#181818;stroke-width:0.5;" width="220" x="1044" y="41"/><a href="../grid/#Armon.@iter_blocks" target="_top" title="../grid/#Armon.@iter_blocks" xlink:actuate="onRequest" xlink:href="../grid/#Armon.@iter_blocks" xlink:show="new" xlink:title="../grid/#Armon.@iter_blocks" xlink:type="simple"><text fill="#0000FF" font-family="monospace" font-size="14" lengthAdjust="spacing" text-decoration="underline" textLength="96" x="1054" y="63.9951">@iter_blocks</text></a><text fill="#000000" font-family="sans-serif" font-size="14" lengthAdjust="spacing" textLength="200" x="1054" y="80.292">Iterates a grid block by block.</text><text fill="#000000" font-family="sans-serif" font-size="14" lengthAdjust="spacing" textLength="115" x="1054" y="96.5889">Is multithreaded.</text><text fill="#000000" font-family="sans-serif" font-size="14" lengthAdjust="spacing" textLength="191" x="1054" y="112.8857">Respects the distribution of</text><text fill="#000000" font-family="sans-serif" font-size="14" lengthAdjust="spacing" textLength="124" x="1054" y="129.1826">blocks to threads.</text></g><!--entity block_grid_dims--><g id="elem_block_grid_dims"><rect fill="#F1F1F1" height="101.4844" rx="2.5" ry="2.5" style="stroke:#181818;stroke-width:0.5;" width="176" x="46" y="312.64"/><text fill="#000000" font-family="monospace" font-size="14" lengthAdjust="spacing" textLength="72" x="56" y="335.6351">grid_size</text><text fill="#000000" font-family="monospace" font-size="14" lengthAdjust="spacing" textLength="136" x="56" y="351.932">static_sized_grid</text><text fill="#000000" font-family="monospace" font-size="14" lengthAdjust="spacing" textLength="72" x="56" y="368.2289">cell_size</text><text fill="#000000" font-family="monospace" font-size="14" lengthAdjust="spacing" textLength="72" x="56" y="384.5257">edge_size</text><text fill="#000000" font-family="sans-serif" font-size="14" lengthAdjust="spacing" textLength="156" x="56" y="400.8226">Dimensions of the grid</text></g><!--entity block_grid_blocks--><g id="elem_block_grid_blocks"><rect fill="#F1F1F1" height="52.5938" rx="2.5" ry="2.5" style="stroke:#181818;stroke-width:0.5;" width="229" x="270.5" y="337.08"/><text fill="#000000" font-family="monospace" font-size="14" lengthAdjust="spacing" textLength="48" x="280.5" y="360.0751">blocks</text><text fill="#000000" font-family="sans-serif" font-size="14" lengthAdjust="spacing" textLength="125" x="280.5" y="376.372">The blocks of size</text><text fill="#000000" font-family="monospace" font-size="14" lengthAdjust="spacing" textLength="80" x="409.5" y="376.372">block_size</text></g><!--entity block_grid_edge_blocks--><g id="elem_block_grid_edge_blocks"><rect fill="#F1F1F1" height="117.7813" rx="2.5" ry="2.5" style="stroke:#181818;stroke-width:0.5;" width="258" x="620" y="304.49"/><text fill="#000000" font-family="monospace" font-size="14" lengthAdjust="spacing" textLength="88" x="630" y="327.4851">edge_blocks</text><text fill="#000000" font-family="sans-serif" font-size="14" lengthAdjust="spacing" textLength="234" x="630" y="343.782">The blocks at the edge of the grid</text><text fill="#000000" font-family="sans-serif" font-size="14" lengthAdjust="spacing" textLength="136" x="630" y="360.0789">Usually smaller than</text><text fill="#000000" font-family="monospace" font-size="14" lengthAdjust="spacing" textLength="80" x="770" y="360.0789">block_size</text><text fill="#000000" font-family="sans-serif" font-size="14" lengthAdjust="spacing" textLength="4" x="850" y="360.0789">.</text><text fill="#000000" font-family="sans-serif" font-size="14" lengthAdjust="spacing" textLength="238" x="630" y="376.3757">Since they mustn't be smaller than</text><text fill="#000000" font-family="monospace" font-size="14" lengthAdjust="spacing" textLength="56" x="630" y="392.6726">nghosts</text><text fill="#000000" font-family="sans-serif" font-size="14" lengthAdjust="spacing" textLength="171" x="686" y="392.6726">, in some cases they can</text><text fill="#000000" font-family="sans-serif" font-size="14" lengthAdjust="spacing" textLength="96" x="630" y="408.9695">be larger than</text><text fill="#000000" font-family="monospace" font-size="14" lengthAdjust="spacing" textLength="80" x="730" y="408.9695">block_size</text><text fill="#000000" font-family="sans-serif" font-size="14" lengthAdjust="spacing" textLength="4" x="810" y="408.9695">.</text></g><!--entity block_grid_remote_blocks--><g id="elem_block_grid_remote_blocks"><rect fill="#F1F1F1" height="85.1875" rx="2.5" ry="2.5" style="stroke:#181818;stroke-width:0.5;" width="224" x="436" y="528.12"/><text fill="#000000" font-family="monospace" font-size="14" lengthAdjust="spacing" textLength="104" x="446" y="551.1151">remote_blocks</text><text fill="#000000" font-family="sans-serif" font-size="14" lengthAdjust="spacing" textLength="200" x="446" y="567.412">Represent the distant blocks</text><text fill="#000000" font-family="sans-serif" font-size="14" lengthAdjust="spacing" textLength="204" x="446" y="583.7089">connected to our local blocks</text><text fill="#000000" font-family="monospace" font-size="14" lengthAdjust="spacing" textLength="80" x="446" y="600.0057">rank&#160;==&#160;-1</text><text fill="#000000" font-family="sans-serif" font-size="14" lengthAdjust="spacing" textLength="116" x="530" y="600.0057">if they don't exist</text></g><g id="elem_local_task_block_device_data"><ellipse cx="1077" cy="570.718" fill="#F1F1F1" rx="68.24" ry="16.048" style="stroke:#181818;stroke-width:0.5;"/><text fill="#000000" font-family="monospace" font-size="14" lengthAdjust="spacing" textLength="88" x="1030" y="574.4656">device_data</text></g><g id="elem_local_task_block_host_data"><ellipse cx="1243.0049" cy="570.717" fill="#F1F1F1" rx="62.7349" ry="14.947" style="stroke:#181818;stroke-width:0.5;"/><text fill="#000000" font-family="monospace" font-size="14" lengthAdjust="spacing" textLength="72" x="1204.0049" y="574.4645">host_data</text></g><!--entity local_task_block_data--><g id="elem_local_task_block_data"><rect fill="#F1F1F1" height="52.5938" rx="2.5" ry="2.5" style="stroke:#181818;stroke-width:0.5;" width="192" x="1047" y="740.46"/><a href="../blocks/#Armon.BlockData" target="_top" title="../blocks/#Armon.BlockData" xlink:actuate="onRequest" xlink:href="../blocks/#Armon.BlockData" xlink:show="new" xlink:title="../blocks/#Armon.BlockData" xlink:type="simple"><text fill="#0000FF" font-family="monospace" font-size="14" lengthAdjust="spacing" text-decoration="underline" textLength="72" x="1057" y="763.4551">BlockData</text></a><text fill="#000000" font-family="sans-serif" font-size="14" lengthAdjust="spacing" textLength="172" x="1057" y="779.752">Holds all arrays of a block</text></g><!--entity local_task_block_state--><g id="elem_local_task_block_state"><rect fill="#F1F1F1" height="68.8906" rx="2.5" ry="2.5" style="stroke:#181818;stroke-width:0.5;" width="207" x="1340.5" y="536.27"/><text fill="#000000" font-family="monospace" font-size="14" lengthAdjust="spacing" textLength="40" x="1350.5" y="559.2651">state</text><text fill="#000000" font-family="sans-serif" font-size="14" lengthAdjust="spacing" textLength="187" x="1350.5" y="575.562">Individual state of the block</text><text fill="#000000" font-family="sans-serif" font-size="14" lengthAdjust="spacing" textLength="9" x="1350.5" y="591.8589">A</text><a href="../block_states/#Armon.SolverState" target="_top" title="../block_states/#Armon.SolverState" xlink:actuate="onRequest" xlink:href="../block_states/#Armon.SolverState" xlink:show="new" xlink:title="../block_states/#Armon.SolverState" xlink:type="simple"><text fill="#0000FF" font-family="monospace" font-size="14" lengthAdjust="spacing" text-decoration="underline" textLength="88" x="1363.5" y="591.8589">SolverState</text></a></g><!--entity local_task_block_neighbours--><g id="elem_local_task_block_neighbours"><rect fill="#F1F1F1" height="52.5938" rx="2.5" ry="2.5" style="stroke:#181818;stroke-width:0.5;" width="263" x="1582.5" y="544.42"/><text fill="#000000" font-family="monospace" font-size="14" lengthAdjust="spacing" textLength="80" x="1592.5" y="567.4151">neighbours</text><text fill="#000000" font-family="sans-serif" font-size="14" lengthAdjust="spacing" textLength="243" x="1592.5" y="583.712">References to neighbouring blocks</text></g><!--entity local_task_block_exchanges--><g id="elem_local_task_block_exchanges"><rect fill="#F1F1F1" height="68.8906" rx="2.5" ry="2.5" style="stroke:#181818;stroke-width:0.5;" width="236" x="1596" y="732.31"/><text fill="#000000" font-family="monospace" font-size="14" lengthAdjust="spacing" textLength="72" x="1606" y="755.3051">exchanges</text><text fill="#000000" font-family="sans-serif" font-size="14" lengthAdjust="spacing" textLength="27" x="1606" y="771.602">The</text><a href="../block_states/#Armon.BlockInterface" target="_top" title="../block_states/#Armon.BlockInterface" xlink:actuate="onRequest" xlink:href="../block_states/#Armon.BlockInterface" xlink:show="new" xlink:title="../block_states/#Armon.BlockInterface" xlink:type="simple"><text fill="#0000FF" font-family="monospace" font-size="14" lengthAdjust="spacing" text-decoration="underline" textLength="112" x="1637" y="771.602">BlockInterface</text></a><text fill="#000000" font-family="sans-serif" font-size="14" lengthAdjust="spacing" textLength="8" x="1749" y="771.602">s</text><text fill="#000000" font-family="sans-serif" font-size="14" lengthAdjust="spacing" textLength="216" x="1606" y="787.8989">managing local halo exchanges</text></g><!--link block_grid_blocks to block_grid_remote_blocks--><g id="link_block_grid_blocks_block_grid_remote_blocks"><path d="M405.31,389.97 C432.71,424.48 478.1096,481.6706 510.9496,523.0406 " fill="none" id="block_grid_blocks-to-block_grid_remote_blocks" style="stroke:#181818;stroke-width:1.0;"/><polygon fill="#181818" points="514.68,527.74,512.2173,518.204,511.5713,523.8239,505.9515,523.1779,514.68,527.74" style="stroke:#181818;stroke-width:1.0;"/><text fill="#000000" font-family="sans-serif" font-size="13" lengthAdjust="spacing" textLength="84" x="467" y="465.3369">connected to</text></g><!--link block_grid_edge_blocks to block_grid_remote_blocks--><g id="link_block_grid_edge_blocks_block_grid_remote_blocks"><path d="M691.94,422.67 C659.09,456.23 622.7771,493.3223 593.1071,523.6323 " fill="none" id="block_grid_edge_blocks-to-block_grid_remote_blocks" style="stroke:#181818;stroke-width:1.0;"/><polygon fill="#181818" points="588.91,527.92,598.0641,524.2866,592.4076,524.3469,592.3473,518.6904,588.91,527.92" style="stroke:#181818;stroke-width:1.0;"/><text fill="#000000" font-family="sans-serif" font-size="13" lengthAdjust="spacing" textLength="84" x="661" y="465.3369">connected to</text></g><!--link block_grid_blocks to block_grid_edge_blocks--><g id="link_block_grid_blocks_block_grid_edge_blocks"><path d="M505.67,363.38 C543.81,363.38 574.53,363.38 613.7,363.38 " fill="none" id="block_grid_blocks-block_grid_edge_blocks" style="stroke:#181818;stroke-width:1.0;"/><polygon fill="#181818" points="499.67,363.38,508.67,367.38,504.67,363.38,508.67,359.38,499.67,363.38" style="stroke:#181818;stroke-width:1.0;"/><polygon fill="#181818" points="619.7,363.38,610.7,359.38,614.7,363.38,610.7,367.38,619.7,363.38" style="stroke:#181818;stroke-width:1.0;"/><text fill="#000000" font-family="sans-serif" font-size="13" lengthAdjust="spacing" textLength="84" x="517.75" y="356.4469">connected to</text></g><!--link block_grid_dimensions to block_grid_dims--><g id="link_block_grid_dimensions_block_grid_dims"><path d="M134,126.62 C134,173.44 134,252.26 134,306.37 " fill="none" id="block_grid_dimensions-to-block_grid_dims" style="stroke:#181818;stroke-width:1.0;"/><polygon fill="#181818" points="134,312.37,138,303.37,134,307.37,130,303.37,134,312.37" style="stroke:#181818;stroke-width:1.0;"/></g><!--reverse link block_grid_dimensions to block_grid_mem_required--><g id="link_block_grid_dimensions_block_grid_mem_required"><path d="M250.38,91.75 C261.89,91.75 267.57,91.75 279.02,91.75 " fill="none" id="block_grid_dimensions-backto-block_grid_mem_required" style="stroke:#181818;stroke-width:1.0;"/><polygon fill="#181818" points="244.38,91.75,253.38,95.75,249.38,91.75,253.38,87.75,244.38,91.75" style="stroke:#181818;stroke-width:1.0;"/></g><!--link local_task_block_neighbours to local_task_block_exchanges--><g id="link_local_task_block_neighbours_local_task_block_exchanges"><path d="M1714,603.48 C1714,638.12 1714,687.77 1714,726.05 " fill="none" id="local_task_block_neighbours-local_task_block_exchanges" style="stroke:#181818;stroke-width:1.0;"/><polygon fill="#181818" points="1714,597.48,1710,606.48,1714,602.48,1718,606.48,1714,597.48" style="stroke:#181818;stroke-width:1.0;"/><polygon fill="#181818" points="1714,732.05,1718,723.05,1714,727.05,1710,723.05,1714,732.05" style="stroke:#181818;stroke-width:1.0;"/></g><!--link local_task_block_device_data to local_task_block_data--><g id="link_local_task_block_device_data_local_task_block_data"><path d="M1082.18,586.94 C1093.45,620.09 1118.3869,693.4099 1132.3369,734.3999 " fill="none" id="local_task_block_device_data-to-local_task_block_data" style="stroke:#181818;stroke-width:1.0;"/><polygon fill="#181818" points="1134.27,740.08,1135.1571,730.2712,1132.6591,735.3466,1127.5837,732.8486,1134.27,740.08" style="stroke:#181818;stroke-width:1.0;"/></g><!--link local_task_block_host_data to local_task_block_data--><g id="link_local_task_block_host_data_local_task_block_data"><path d="M1235.65,585.98 C1218.87,618.54 1180.3085,693.3566 1158.9785,734.7466 " fill="none" id="local_task_block_host_data-to-local_task_block_data" style="stroke:#181818;stroke-width:1.0;"/><polygon fill="#181818" points="1156.23,740.08,1163.9084,733.9122,1158.5205,735.6355,1156.7972,730.2475,1156.23,740.08" style="stroke:#181818;stroke-width:1.0;"/></g><!--reverse link block_grid_remote_blocks to block_grid_RemoteBlockRegions--><g id="link_block_grid_remote_blocks_block_grid_RemoteBlockRegions"><path d="M548,619.34 C548,661.44 548,718.45 548,748.55 " fill="none" id="block_grid_remote_blocks-backto-block_grid_RemoteBlockRegions" style="stroke:#181818;stroke-width:1.0;"/><polygon fill="#181818" points="548,613.34,544,622.34,548,618.34,552,622.34,548,613.34" style="stroke:#181818;stroke-width:1.0;"/><text fill="#000000" font-family="sans-serif" font-size="13" lengthAdjust="spacing" textLength="49" x="549" y="698.3769">Iterates</text></g><!--link block_grid_EdgeBlockRegions to block_grid_edge_blocks--><g id="link_block_grid_EdgeBlockRegions_block_grid_edge_blocks"><path d="M710.63,110.02 C716.47,148.44 729.8587,236.4781 739.2487,298.2781 " fill="none" id="block_grid_EdgeBlockRegions-to-block_grid_edge_blocks" style="stroke:#181818;stroke-width:1.0;"/><polygon fill="#181818" points="740.15,304.21,742.7527,294.7113,739.3989,299.2667,734.8434,295.913,740.15,304.21" style="stroke:#181818;stroke-width:1.0;"/><text fill="#000000" font-family="sans-serif" font-size="13" lengthAdjust="spacing" textLength="49" x="723" y="185.5569">Iterates</text></g><!--link block_grid_row_iterator to grid_blocks--><g id="link_block_grid_row_iterator_grid_blocks"><path d="M913,118.11 C913,134.63 913,157.8125 913,183.3778 C913,196.1605 913,209.5388 913,222.9779 C913,229.6975 913,236.4322 913,243.1153 C913,246.4568 913,249.7854 913,253.0927 C913,253.9196 913,248.7451 913,249.5691 " fill="none" id="block_grid_row_iterator-to-grid_blocks" style="stroke:#181818;stroke-width:1.0;"/><polygon fill="#181818" points="913,255.5691,917,246.5691,913,250.5691,909,246.5691,913,255.5691" style="stroke:#181818;stroke-width:1.0;"/></g><!--link block_grid_iter_blocks to grid_blocks--><g id="link_block_grid_iter_blocks_grid_blocks"><path d="M1109.23,142.83 C1074.93,181.21 1026.8575,234.995 986.8788,279.7238 C966.8894,302.0881 948.9234,322.1884 935.7142,336.967 C932.4119,340.6617 929.4069,344.0237 926.7419,347.0054 C925.4094,348.4962 924.1619,349.8919 923.0047,351.1866 C922.4261,351.8339 925.8686,347.9825 925.3358,348.5785 " fill="none" id="block_grid_iter_blocks-to-grid_blocks" style="stroke:#181818;stroke-width:1.0;"/><polygon fill="#181818" points="921.3374,353.0521,930.3174,349.0073,924.6694,349.3241,924.3527,343.6761,921.3374,353.0521" style="stroke:#181818;stroke-width:1.0;"/></g><!--link block_grid_blocks to local_task_block--><g id="link_block_grid_blocks_local_task_block"><path d="M465.39,390.18 C506.17,402.12 556.74,415.2 603,422.27 C620.3,424.91 1848.68,465.92 1862,477.27 C1865.9275,480.6188 1869.1761,484.5431 1871.8534,488.8508 C1872.5227,489.9277 1873.1563,491.0285 1873.7559,492.1503 C1873.9058,492.4308 1871.3078,487.3777 1871.4535,487.6608 " fill="none" id="block_grid_blocks-to-local_task_block" style="stroke:#181818;stroke-width:1.0;"/><polygon fill="#181818" points="1874.1993,492.9956,1873.6371,483.1628,1871.9111,488.5499,1866.524,486.8239,1874.1993,492.9956" style="stroke:#181818;stroke-width:1.0;"/></g><!--link block_grid_edge_blocks to local_task_block--><g id="link_block_grid_edge_blocks_local_task_block"><path d="M878.32,421.37 C879.55,421.68 880.77,421.98 882,422.27 C988.11,447.48 1779.44,406.01 1862,477.27 C1865.9075,480.6425 1869.1411,484.5847 1871.8075,488.9053 C1872.4741,489.9855 1873.1052,491.0893 1873.7025,492.2138 C1873.8519,492.4949 1871.266,487.4359 1871.4112,487.7196 " fill="none" id="block_grid_edge_blocks-to-local_task_block" style="stroke:#181818;stroke-width:1.0;"/><polygon fill="#181818" points="1874.1443,493.0609,1873.6055,483.2268,1871.8667,488.6098,1866.4837,486.8709,1874.1443,493.0609" style="stroke:#181818;stroke-width:1.0;"/></g><!--SRC=[fLPBRziu4BxhLmpKmrxMJjFZmYtwH1kW9oTx2Wo1biOoOObKIJgfTv7_laDIbYbHKWoiBfB8RsQ-UN26AsrE5Nv8bdN3uTy4u3FB3z-LF8hYYwoaWZVltkKvOxJpamjysFFy851hk6rNF6fRaLZoaYJBXXqrZcj2lBrz-_PAJQkRbbdIq08h4TBFbSmFy5tn8WMceJcKsTOkPIKjEPC0EyLgWgOUxB2fG_UG3ceV8Gj2MvW7Q8UrAAzQjshFZyBSC55M6EWx8nzxIFkaQQiqZROUzgqA3N87cl-3PtHcVmOIczT9O57Y79DWVvuECs3ep-8jDVjj3KGYV-iZgweJw9fUg0Z8nC27PIHqpqMELkS9wgCsuWy3M-of6A4kohtKXcZ_2Lo0bfJWd6dKNay-8aCwAwRAQrXT4Lg5jJIpmUqXHiAxnaQXHk53Mt1DHamRy0YSIo681XPW9CYZ0eAnQWfDnfaumFltiBYbIkSx7vL2sjZYRp8ruUxBvHICUbtmUkXichgTaG9DKtB9yDpj5Kv1XCYngiPbNMsEx7pbDGhDfT2ZbRYvU12VniNYmtGE_-e5UKnBU9p-fweMkEfh2GsCw6YpCvMPSrWk-MbpSzaBOlb5ritH-0C3HHZK3j8BxcR6U8qrHU3NaIiY6vf_V4oNovk6sGPiKEcC2QA3Jpp7cpUVL2t5acIbEdNYAGmMDfk0z3TjUCtEh8qqT0OyFgZRbiUE1WVhE5YUPvENCG3TPsScyfDcnTfbrs7NMFf03WP85cDYFTyel_DQXWXFPZpFWnAqPtC6lLfCPIpf3ycVjhCyC7rmF5gAhjraXbPzVGOZa4QxxRnMr6SsAvXX4t9P01dJO9lwh7m76EjKiJK2HltA5uG_PhsI-6hjGlVPgppx_91LGREmge0fnKwk0J4VrR7-CyFBDaQCYBdLWSqxKV0dNj1O1I_KDhs-LVjywhlcRNGEtilg2TMzim31Jy_9wyWBvEL-IqCe7WMNhO4RQzoXGfhpsWwm3iP5EPnXrt70tpaDyH9Z2jtEW86zpSm5oANzJb2Nsh4SspBe_csO-dEsPeALbh-Vn7jMIUXiZtap5yULFSlJJiue2SuJZ2hfdRJfu_IAyDpeKV8vunGdPgZZnjq_whnh-NpNmjim1okzUlIBb6JcvX2G9TYUxElLaMG9nRUpCKuV0sWAuTyi5zy6YOtxkDmVxpJTOYl3pLuXAx2uxAnHDqHLT_SznRT7GyqvdBajPJeaNe5UXgxEpXjO79lvMydPXw6kuTI1HI6VnTpTP4fJhnPiIGMtdI4sJD4GcanVu8P5chnoIulmB_y1]--></g></svg>