<svg xmlns="http://www.w3.org/2000/svg" xmlns:xlink="http://www.w3.org/1999/xlink" contentStyleType="text/css" height="1259px" preserveAspectRatio="none" style="width:972px;height:1259px;background:#FFFFFF;" version="1.1" viewBox="0 0 972 1259" width="972px" zoomAndPan="magnify"><defs/><g><!--cluster Global Time Step--><g id="cluster_Global Time Step"><path d="M8.5,6 L142.5,6 A3.75,3.75 0 0 1 145,8.5 L152,28.2969 L962.5,28.2969 A2.5,2.5 0 0 1 965,30.7969 L965,1250.39 A2.5,2.5 0 0 1 962.5,1252.89 L8.5,1252.89 A2.5,2.5 0 0 1 6,1250.39 L6,8.5 A2.5,2.5 0 0 1 8.5,6 " fill="none" style="stroke:#000000;stroke-width:1.5;"/><line style="stroke:#000000;stroke-width:1.5;" x1="6" x2="152" y1="28.2969" y2="28.2969"/><text fill="#000000" font-family="sans-serif" font-size="14" font-weight="bold" lengthAdjust="spacing" textLength="133" x="10" y="20.9951">Global Time Step</text></g><!--cluster global_time_step--><g id="cluster_global_time_step"><rect fill="none" height="335.37" rx="2.5" ry="2.5" style="stroke:#181818;stroke-width:1.0;" width="397" x="536" y="196.55"/><path d="M658,196.55 L658,205.8469 L648,215.8469 L536,215.8469 " fill="none" style="stroke:#181818;stroke-width:1.0;"/><a href="../block_states/#Armon.GlobalTimeStep" target="_top" title="../block_states/#Armon.GlobalTimeStep" xlink:actuate="onRequest" xlink:href="../block_states/#Armon.GlobalTimeStep" xlink:show="new" xlink:title="../block_states/#Armon.GlobalTimeStep" xlink:type="simple"><text fill="#0000FF" font-family="monospace" font-size="14" font-weight="bold" lengthAdjust="spacing" text-decoration="underline" textLength="112" x="539" y="210.5451">GlobalTimeStep</text></a></g><!--cluster pkg_blk_time_step--><g id="cluster_pkg_blk_time_step"><path d="M40.5,57 L200.5,57 A3.75,3.75 0 0 1 203,59.5 L210,79.2969 L493.5,79.2969 A2.5,2.5 0 0 1 496,81.7969 L496,1218.39 A2.5,2.5 0 0 1 493.5,1220.89 L40.5,1220.89 A2.5,2.5 0 0 1 38,1218.39 L38,59.5 A2.5,2.5 0 0 1 40.5,57 " fill="none" style="stroke:#000000;stroke-width:1.5;"/><line style="stroke:#000000;stroke-width:1.5;" x1="38" x2="210" y1="79.2969" y2="79.2969"/><text fill="#000000" font-family="sans-serif" font-size="14" font-weight="bold" lengthAdjust="spacing" textLength="159" x="42" y="71.9951">Time step reduction</text></g><g id="elem_global_time_step_instance"><ellipse cx="844.0011" cy="118.1482" fill="#F1F1F1" rx="104.9911" ry="23.3982" style="stroke:#181818;stroke-width:0.5;"/><text fill="#000000" font-family="monospace" font-size="14" lengthAdjust="spacing" textLength="112" x="756.5011" y="120.9949">GlobalTimeStep</text><text fill="#000000" font-family="sans-serif" font-size="14" lengthAdjust="spacing" textLength="59" x="872.5011" y="120.9949">instance</text></g><!--entity global_time_step_state--><g id="elem_global_time_step_state"><rect fill="#F1F1F1" height="36.2969" rx="2.5" ry="2.5" style="stroke:#181818;stroke-width:0.5;" width="60" x="830" y="239.55"/><text fill="#000000" font-family="monospace" font-size="14" lengthAdjust="spacing" textLength="40" x="840" y="262.5451">state</text></g><!--entity global_time_step_next_cycle_dt--><g id="elem_global_time_step_next_cycle_dt"><rect fill="#F1F1F1" height="36.2969" rx="2.5" ry="2.5" style="stroke:#181818;stroke-width:0.5;" width="124" x="560" y="239.55"/><text fill="#000000" font-family="monospace" font-size="14" lengthAdjust="spacing" textLength="104" x="570" y="262.5451">next_cycle_dt</text></g><!--entity global_time_step_next_dt--><g id="elem_global_time_step_next_dt"><rect fill="#F1F1F1" height="36.2969" rx="2.5" ry="2.5" style="stroke:#181818;stroke-width:0.5;" width="76" x="719" y="239.55"/><text fill="#000000" font-family="monospace" font-size="14" lengthAdjust="spacing" textLength="56" x="729" y="262.5451">next_dt</text></g><!--entity global_time_step_contributions--><g id="elem_global_time_step_contributions"><rect fill="#F1F1F1" height="36.2969" rx="2.5" ry="2.5" style="stroke:#181818;stroke-width:0.5;" width="124" x="560" y="417.88"/><text fill="#000000" font-family="monospace" font-size="14" lengthAdjust="spacing" textLength="104" x="570" y="440.8751">contributions</text></g><!--entity time_step_state--><g id="elem_time_step_state"><rect fill="#F1F1F1" height="143.7813" rx="2.5" ry="2.5" style="stroke:#181818;stroke-width:0.5;" width="132" x="758" y="364.14"/><text fill="#000000" font-family="monospace" font-size="14" lengthAdjust="spacing" textLength="104" x="768" y="380.1351">TimeStepState</text><line style="stroke:#181818;stroke-width:1.0;" x1="759" x2="889" y1="383.4369" y2="383.4369"/><line style="stroke:#181818;stroke-width:1.0;" x1="759" x2="889" y1="385.4369" y2="385.4369"/><a href="../block_states/#Armon.TimeStepState.Ready" target="_top" title="../block_states/#Armon.TimeStepState.Ready" xlink:actuate="onRequest" xlink:href="../block_states/#Armon.TimeStepState.Ready" xlink:show="new" xlink:title="../block_states/#Armon.TimeStepState.Ready" xlink:type="simple"><text fill="#0000FF" font-family="monospace" font-size="14" lengthAdjust="spacing" text-decoration="underline" textLength="40" x="768" y="400.432">Ready</text></a><line style="stroke:#181818;stroke-width:1.0;" x1="759" x2="889" y1="407.7338" y2="407.7338"/><a href="../block_states/#Armon.TimeStepState.AllContributed" target="_top" title="../block_states/#Armon.TimeStepState.AllContributed" xlink:actuate="onRequest" xlink:href="../block_states/#Armon.TimeStepState.AllContributed" xlink:show="new" xlink:title="../block_states/#Armon.TimeStepState.AllContributed" xlink:type="simple"><text fill="#0000FF" font-family="monospace" font-size="14" lengthAdjust="spacing" text-decoration="underline" textLength="112" x="768" y="424.7289">AllContributed</text></a><line style="stroke:#181818;stroke-width:1.0;" x1="759" x2="889" y1="432.0306" y2="432.0306"/><a href="../block_states/#Armon.TimeStepState.DoingMPI" target="_top" title="../block_states/#Armon.TimeStepState.DoingMPI" xlink:actuate="onRequest" xlink:href="../block_states/#Armon.TimeStepState.DoingMPI" xlink:show="new" xlink:title="../block_states/#Armon.TimeStepState.DoingMPI" xlink:type="simple"><text fill="#0000FF" font-family="monospace" font-size="14" lengthAdjust="spacing" text-decoration="underline" textLength="64" x="768" y="449.0257">DoingMPI</text></a><line style="stroke:#181818;stroke-width:1.0;" x1="759" x2="889" y1="456.3275" y2="456.3275"/><a href="../block_states/#Armon.TimeStepState.WaitingForMPI" target="_top" title="../block_states/#Armon.TimeStepState.WaitingForMPI" xlink:actuate="onRequest" xlink:href="../block_states/#Armon.TimeStepState.WaitingForMPI" xlink:show="new" xlink:title="../block_states/#Armon.TimeStepState.WaitingForMPI" xlink:type="simple"><text fill="#0000FF" font-family="monospace" font-size="14" lengthAdjust="spacing" text-decoration="underline" textLength="104" x="768" y="473.3226">WaitingForMPI</text></a><line style="stroke:#181818;stroke-width:1.0;" x1="759" x2="889" y1="480.6244" y2="480.6244"/><a href="../block_states/#Armon.TimeStepState.Done" target="_top" title="../block_states/#Armon.TimeStepState.Done" xlink:actuate="onRequest" xlink:href="../block_states/#Armon.TimeStepState.Done" xlink:show="new" xlink:title="../block_states/#Armon.TimeStepState.Done" xlink:type="simple"><text fill="#0000FF" font-family="monospace" font-size="14" lengthAdjust="spacing" text-decoration="underline" textLength="32" x="768" y="497.6195">Done</text></a></g><!--entity time_step_next_time_step--><g id="elem_time_step_next_time_step"><rect fill="#F1F1F1" height="36.2969" rx="2.5" ry="2.5" style="stroke:#181818;stroke-width:0.5;" width="132" x="197" y="100"/><text fill="#000000" font-family="monospace" font-size="14" lengthAdjust="spacing" textLength="112" x="207" y="122.9951">next_time_step</text></g><!--entity cond_time_step_wait--><g id="elem_cond_time_step_wait"><polygon fill="#F1F1F1" points="464,257.69,363.5,228.25,162.5,228.25,62,257.69,162.5,287.14,363.5,287.14,464,257.69" style="stroke:#181818;stroke-width:0.5;"/><text fill="#000000" font-family="sans-serif" font-size="14" lengthAdjust="spacing" textLength="166" x="162.5" y="246.2451">MPI reduce in progress?</text><text fill="#000000" font-family="sans-serif" font-size="14" lengthAdjust="spacing" textLength="201" x="162.5" y="262.542">This means that the previous</text><text fill="#000000" font-family="sans-serif" font-size="14" lengthAdjust="spacing" textLength="148" x="162.5" y="278.8389">reduction is not done</text></g><!--entity cond_contribute_time_step--><g id="elem_cond_contribute_time_step"><polygon fill="#F1F1F1" points="379,600.07,308.5,586.92,167.5,586.92,97,600.07,167.5,613.22,308.5,613.22,379,600.07" style="stroke:#181818;stroke-width:0.5;"/><text fill="#000000" font-family="sans-serif" font-size="14" lengthAdjust="spacing" textLength="141" x="167.5" y="604.9151">Already contributed?</text></g><!--entity time_step_local--><g id="elem_time_step_local"><rect fill="#F1F1F1" height="36.2969" rx="2.5" ry="2.5" style="stroke:#181818;stroke-width:0.5;" width="140" x="168" y="690.22"/><text fill="#000000" font-family="monospace" font-size="14" lengthAdjust="spacing" textLength="120" x="178" y="713.2151">local_time_step</text></g><!--entity time_step_contribute--><g id="elem_time_step_contribute"><rect fill="#F1F1F1" height="36.2969" rx="2.5" ry="2.5" style="stroke:#181818;stroke-width:0.5;" width="156" x="160" y="787.52"/><text fill="#000000" font-family="monospace" font-size="14" lengthAdjust="spacing" textLength="136" x="170" y="810.5151">contribute_to_dt!</text></g><!--entity cond_time_step--><g id="elem_cond_time_step"><polygon fill="#F1F1F1" points="393,897.96,315.5,884.81,160.5,884.81,83,897.96,160.5,911.11,315.5,911.11,393,897.96" style="stroke:#181818;stroke-width:0.5;"/><text fill="#000000" font-family="sans-serif" font-size="14" lengthAdjust="spacing" textLength="155" x="160.5" y="902.8051">All blocks contributed?</text></g><!--entity time_step_wait--><g id="elem_time_step_wait"><path d="M272.5299,412.9427 C276.9428,406.9123 281.0884,406.9609 284.5878,413.7986 C286.935,407.9609 291.702,408.1761 295.0325,412.8187 C297.9881,408.168 302.7034,408.1909 305.0593,413.427 C307.5823,407.7588 312.816,406.4256 316.5343,412.2317 C319.4147,407.7762 324.0068,407.3695 327.1696,411.8974 C331.4083,406.3858 336.0352,406.6187 339.8424,412.3824 C343.3739,408.1074 347.6146,408.013 350.6748,412.9373 C354.2791,407.7847 357.724,407.6917 361.384,412.8796 C364.926,407.8273 368.8125,408.4645 371.2867,413.8888 C374.3102,407.9364 379.9114,408.5872 383.4025,413.3607 C390.2845,415.3395 391.2992,421.5748 386.825,426.5095 C392.8582,427.1018 396.1322,431.9887 392.7098,437.5988 C396.355,442.8304 395.0507,448.4954 387.7204,448.8674 C392.1415,453.624 391.2527,459.7253 383.9381,460.7447 C381.1986,467.0574 377.6071,467.7099 372.7298,462.8988 C368.7714,469.4379 364.2175,468.5381 360.0581,463.1117 C358.6596,468.3032 353.4362,470.5744 349.2002,466.4019 C347.0677,471.9891 342.8568,471.8783 339.4973,467.6099 C337.0729,474.5225 332.8694,476.1822 327.3388,470.6428 C323.0719,474.195 319.9834,473.5602 317.2956,468.747 C312.8549,472.4092 308.0133,470.7421 306.3507,465.3782 C302.6437,469.7945 297.4729,469.1707 294.9165,464.0051 C291.218,468.1539 285.8828,468.557 283.8799,462.2203 C279.6405,467.1049 275.1191,466.3235 273.0014,460.1357 C265.6222,458.9288 264.3311,452.9596 269.2111,447.942 C262.9079,446.6357 260.5563,442.0111 264.353,436.4391 C261.0572,431.1811 262.4398,425.3969 269.7818,425.3439 C264.9082,420.2518 266.4991,415.6185 272.5299,412.9427 " fill="#22CCAA" style="stroke:#000000;stroke-width:1.0;"/><text fill="#000000" font-family="sans-serif" font-size="14" font-style="italic" lengthAdjust="spacing" textLength="43" x="305.5" y="432.7251">&#171;mpi&#187;</text><text fill="#000000" font-family="monospace" font-size="14" lengthAdjust="spacing" textLength="96" x="279" y="449.022">wait_for_dt!</text></g><!--entity time_step_update--><g id="elem_time_step_update"><rect fill="#F1F1F1" height="36.2969" rx="2.5" ry="2.5" style="stroke:#181818;stroke-width:0.5;" width="100" x="188" y="988.11"/><text fill="#000000" font-family="monospace" font-size="14" lengthAdjust="spacing" textLength="80" x="198" y="1011.1051">update_dt!</text></g><!--entity global_time_reduction--><g id="elem_global_time_reduction"><path d="M126.1627,1096.494 C129.5502,1088.4232 137.7045,1087.0327 142.6524,1094.8773 C147.5205,1089.0385 151.8681,1089.0203 156.4013,1095.2586 C161.2939,1085.9502 168.9688,1085.4487 175,1094.078 C178.4561,1085.4838 184.9783,1084.9274 189.9499,1092.6931 C195.8273,1084.5985 204.7294,1084.9952 208.4139,1094.9378 C212.2081,1087.5136 218.273,1088.2264 222.5618,1094.4241 C227.6958,1086.3089 233.9871,1086.1249 240.2588,1093.089 C244.7869,1085.5433 251.2687,1085.8864 255.9029,1092.9755 C260.2987,1085.6212 267.9815,1086.0223 271.2769,1094.0736 C276.2234,1085.2083 282.2292,1086.747 287.432,1093.8138 C293.4149,1085.0648 301.2902,1084.7908 306.4193,1094.6835 C309.0874,1088.2105 315.4863,1086.5416 319.8634,1092.8917 C325.4094,1084.0063 334.3897,1085.3901 338.6648,1094.2391 C347.7493,1086.2201 356.0292,1089.4748 359.5,1100.41 C361.8195,1100.1189 362.6246,1101.578 361.9708,1103.5941 C372.9469,1108.0242 372.8639,1115.976 364.3317,1122.8038 C374.1478,1128.9109 375.1218,1136.3271 364.7865,1142.8905 C374.0255,1150.0324 372.952,1157.502 362.2148,1161.9484 C370.9323,1175.2263 369.1158,1184.7499 352.5,1188.8944 C353.6133,1188.2813 354.4909,1188.3598 354.7048,1189.8411 C350.5329,1197.5396 342.5055,1198.0004 337.8341,1190.3916 C334.2252,1199.0433 326.4808,1199.8671 320.6423,1192.8356 C317.2397,1200.0928 311.4844,1202.6492 305.5673,1195.4594 C300.7144,1204.5918 294.5278,1204.6885 288.9263,1196.165 C284.5048,1203.9526 278.9399,1202.9718 273.641,1197.1505 C267.705,1204.7294 260.5239,1206.9801 254.6558,1197.0767 C250.736,1205.8955 244.8788,1206.6004 239.0308,1198.9007 C233.6623,1206.752 227.9713,1205.1964 223.5658,1197.9164 C217.3939,1204.6733 212.032,1205.9933 206.7956,1196.925 C200.8296,1203.706 195.2434,1202.1394 191.7484,1194.3697 C187.2814,1203.9701 178.46,1204.2693 173.4675,1194.8755 C168.7563,1202.0424 160.9496,1201.0206 157.6211,1193.3942 C152.0809,1199.6719 145.8294,1199.2352 142.6633,1190.9549 C130.5644,1200.4866 120.5025,1195.7419 116.5,1181.8944 C117.0572,1181.2874 117.6266,1181.3783 117.8956,1182.1799 C108.5203,1178.834 106.9087,1169.7983 114.3567,1163.2991 C102.716,1158.4818 101.4555,1149.9251 110.0222,1141.1528 C102.4229,1132.5218 104.9413,1124.3708 115.8503,1121.126 C106.8396,1108.2896 108.0887,1099.5058 123.5,1093.41 C125.7811,1093.0271 127.045,1094.1457 126.1627,1096.494 " fill="#22CCAA" style="stroke:#000000;stroke-width:1.0;"/><text fill="#000000" font-family="sans-serif" font-size="14" font-style="italic" lengthAdjust="spacing" textLength="43" x="216.5" y="1113.4051">&#171;mpi&#187;</text><text fill="#000000" font-family="sans-serif" font-size="14" lengthAdjust="spacing" textLength="7" x="123.5" y="1129.702">If</text><text fill="#000000" font-family="monospace" font-size="14" lengthAdjust="spacing" textLength="144" x="134.5" y="1129.702">contributions&#160;==&#160;0</text><text fill="#000000" font-family="sans-serif" font-size="14" lengthAdjust="spacing" textLength="32" x="282.5" y="1129.702">then</text><text fill="#000000" font-family="sans-serif" font-size="14" lengthAdjust="spacing" textLength="8" x="123.5" y="1145.9989">a</text><text fill="#000000" font-family="monospace" font-size="14" lengthAdjust="spacing" textLength="112" x="135.5" y="1145.9989">MPI_IAllreduce</text><text fill="#000000" font-family="sans-serif" font-size="14" lengthAdjust="spacing" textLength="79" x="251.5" y="1145.9989">is launched</text><text fill="#000000" font-family="sans-serif" font-size="14" lengthAdjust="spacing" textLength="229" x="123.5" y="1162.2957">by the last contributor. The result</text><text fill="#000000" font-family="sans-serif" font-size="14" lengthAdjust="spacing" textLength="76" x="123.5" y="1178.5926">is stored in</text><text fill="#000000" font-family="monospace" font-size="14" lengthAdjust="spacing" textLength="104" x="203.5" y="1178.5926">next_cycle_dt</text><text fill="#000000" font-family="sans-serif" font-size="14" lengthAdjust="spacing" textLength="4" x="307.5" y="1178.5926">.</text></g><!--link global_time_step_state to time_step_state--><g id="link_global_time_step_state_time_step_state"><path d="M856.42,276.25 C852.24,296.72 846.2707,325.9714 839.7307,357.9914 " fill="none" id="global_time_step_state-to-time_step_state" style="stroke:#181818;stroke-width:1.0;"/><polygon fill="#181818" points="838.53,363.87,844.2501,355.8525,839.5306,358.9711,836.412,354.2516,838.53,363.87" style="stroke:#181818;stroke-width:1.0;"/></g><!--link time_step_next_time_step to cond_time_step_wait--><g id="link_time_step_next_time_step_cond_time_step_wait"><path d="M263,136.57 C263,159.56 263,194.33 263,221.93 " fill="none" id="time_step_next_time_step-to-cond_time_step_wait" style="stroke:#181818;stroke-width:1.0;"/><polygon fill="#181818" points="263,227.93,267,218.93,263,222.93,259,218.93,263,227.93" style="stroke:#181818;stroke-width:1.0;"/></g><!--link cond_time_step_wait to time_step_wait--><g id="link_cond_time_step_wait_time_step_wait"><path d="M273.43,287.42 C285.08,319.53 301.8327,365.6801 313.7827,398.6001 " fill="none" id="cond_time_step_wait-to-time_step_wait" style="stroke:#181818;stroke-width:1.0;"/><polygon fill="#181818" points="315.83,404.24,316.519,394.4153,314.1239,399.5401,308.9991,397.145,315.83,404.24" style="stroke:#181818;stroke-width:1.0;"/><text fill="#000000" font-family="sans-serif" font-size="13" lengthAdjust="spacing" textLength="22" x="291" y="330.2069">yes</text></g><!--link cond_time_step_wait to cond_contribute_time_step--><g id="link_cond_time_step_wait_cond_contribute_time_step"><path d="M250.61,287.6 C242.37,308.45 232.31,337.48 228,364.14 C214.97,444.77 220.13,466.62 228,547.92 C229.29,561.25 231.0577,570.4191 233.4777,580.7191 " fill="none" id="cond_time_step_wait-to-cond_contribute_time_step" style="stroke:#181818;stroke-width:1.0;"/><polygon fill="#181818" points="234.85,586.56,236.6855,576.8837,233.7064,581.6925,228.8975,578.7135,234.85,586.56" style="stroke:#181818;stroke-width:1.0;"/><text fill="#000000" font-family="sans-serif" font-size="13" lengthAdjust="spacing" textLength="16" x="229" y="440.5969">no</text></g><!--link time_step_wait to cond_contribute_time_step--><g id="link_time_step_wait_cond_contribute_time_step"><path d="M310.26,467.51 C290.52,503.45 261.5389,556.2113 247.6789,581.4413 " fill="none" id="time_step_wait-to-cond_contribute_time_step" style="stroke:#181818;stroke-width:1.0;"/><polygon fill="#181818" points="244.79,586.7,252.6291,580.7378,247.1974,582.3177,245.6175,576.886,244.79,586.7" style="stroke:#181818;stroke-width:1.0;"/></g><!--link cond_contribute_time_step to time_step_local--><g id="link_cond_contribute_time_step_time_step_local"><path d="M238,613.68 C238,632.6 238,662.39 238,683.84 " fill="none" id="cond_contribute_time_step-to-time_step_local" style="stroke:#181818;stroke-width:1.0;"/><polygon fill="#181818" points="238,689.84,242,680.84,238,684.84,234,680.84,238,689.84" style="stroke:#181818;stroke-width:1.0;"/><text fill="#000000" font-family="sans-serif" font-size="13" lengthAdjust="spacing" textLength="16" x="239" y="656.2869">no</text></g><!--link time_step_local to time_step_contribute--><g id="link_time_step_local_time_step_contribute"><path d="M238,726.85 C238,744.04 238,764.14 238,781.3 " fill="none" id="time_step_local-to-time_step_contribute" style="stroke:#181818;stroke-width:1.0;"/><polygon fill="#181818" points="238,787.3,242,778.3,238,782.3,234,778.3,238,787.3" style="stroke:#181818;stroke-width:1.0;"/></g><!--link time_step_contribute to cond_time_step--><g id="link_time_step_contribute_cond_time_step"><path d="M238,824.07 C238,841.81 238,862.86 238,878.54 " fill="none" id="time_step_contribute-to-cond_time_step" style="stroke:#181818;stroke-width:1.0;"/><polygon fill="#181818" points="238,884.54,242,875.54,238,879.54,234,875.54,238,884.54" style="stroke:#181818;stroke-width:1.0;"/></g><!--link cond_time_step to time_step_update--><g id="link_cond_time_step_time_step_update"><path d="M238,911.57 C238,930.49 238,960.28 238,981.73 " fill="none" id="cond_time_step-to-time_step_update" style="stroke:#181818;stroke-width:1.0;"/><polygon fill="#181818" points="238,987.73,242,978.73,238,982.73,234,978.73,238,987.73" style="stroke:#181818;stroke-width:1.0;"/><text fill="#000000" font-family="sans-serif" font-size="13" lengthAdjust="spacing" textLength="22" x="239" y="954.1769">yes</text></g><!--link time_step_update to global_time_reduction--><g id="link_time_step_update_global_time_reduction"><path d="M238,1024.9 C238,1040.3 238,1057.47 238,1079.02 " fill="none" id="time_step_update-to-global_time_reduction" style="stroke:#181818;stroke-width:1.0;"/><polygon fill="#181818" points="238,1085.02,242,1076.02,238,1080.02,234,1076.02,238,1085.02" style="stroke:#181818;stroke-width:1.0;"/></g><!--link pkg_blk_time_step to global_time_step--><g id="link_pkg_blk_time_step_global_time_step"><path d="M496.579,145.9532 C496.7955,146.1536 497.0118,146.3527 497.2279,146.5504 C498.9565,148.1326 500.6717,149.6314 502.3751,151.0509 C505.7818,153.8898 509.1412,156.4114 512.4664,158.6476 C519.1169,163.1201 525.6307,166.4511 532.1127,168.8966 C545.0766,173.7875 557.9131,175.1363 571.4613,174.99 C598.5575,174.6975 628.5,168.425 668,172.55 C681.16,173.92 895.71,172.23 906,180.55 C909.285,183.205 912.053,186.3336 914.381,189.7821 C915.545,191.5064 916.599,193.3107 917.5526,195.1757 C917.6718,195.4089 917.7894,195.643 917.9055,195.878 C917.9636,195.9955 915.4005,190.7158 915.4577,190.8337 " fill="none" id="pkg_blk_time_step-to-global_time_step" style="stroke:#181818;stroke-width:1.0;"/><polygon fill="#181818" points="918.0785,196.2311,917.7456,186.3879,915.8945,191.7333,910.5491,189.8822,918.0785,196.2311" style="stroke:#181818;stroke-width:1.0;"/></g><!--link global_time_step_instance to global_time_step--><g id="link_global_time_step_instance_global_time_step"><path d="M872.18,141.01 C884.23,151.72 897.46,165.54 906,180.55 C908.0888,184.22 909.9503,188.1178 911.6091,192.1344 C912.0238,193.1386 912.4258,194.1502 912.8155,195.1675 C912.9129,195.4218 913.0096,195.6765 913.1055,195.9315 C913.1534,196.059 911.1063,190.5642 911.1539,190.6919 " fill="none" id="global_time_step_instance-to-global_time_step" style="stroke:#181818;stroke-width:1.0;"/><polygon fill="#181818" points="913.2487,196.3143,913.8547,186.4841,911.503,191.6289,906.3582,189.2772,913.2487,196.3143" style="stroke:#181818;stroke-width:1.0;"/></g><!--SRC=[hLLDRzim3BtxLt3gUUx7SSXIT1rM5DY0OIsmGr4OYimwHXJ9aEIjmT3_FafExCYHcs6e3qaiyZr-w96PMRUHEC_oTLF3dmpW4nUh6wDRLLvhgGsSN5m8mJbPljOAxvUrM2cq5iwt9vtNGX8iUycolE6jnJGJuldvsTa_CirEjvbb3Htm2e7TIBtW4kxhDSATmuQ5C01FXjC9O-pXWUNvwK9giIgiumxjwScLMMkLTr2Fx83n- -CZWO5RgC9nuUYS2B3P1l2FGU6ugcG85CWdC5taD4xXiol4HaWiIZU5ZvnUuJd2C8KLMZbJBrfNQsMd62Adh2SIt9GmgXGUUhD_6DjrzQvhKcJzIC_8VVhI8gBy1_9omo1y-GkBQDxJyv-yLr9Uxwh5aa7y_fQHFkjQLT- -tpBO_NfBzf-yTiJwHPiG8dfzsoeK-WeKHgoFWqhI4q4nvv2QafSEIMj3S1iaEffM1hKYToKmBTQTjUFfrqNO4s6A3PQjy58E-6PL5GkvEZxbOOnwh-seZAQiV-qfblZCAws0HgZSI_8ttSTeLEXYkjIG2eJ6wChGFhoCV6XDMbWZLnHvoHrz87dYhrgtDdBiQmG2AEsWf1lQkvrnUknA6ZzA80QnNuOAG-B3QQB4g4iacFtRE6XJi1zPHHH4qy9wTm0UF585I0XojHCr72Okf6vB7zdVHl6apIxeR0R-3t0-ZyDxjtJgRLEIVfCvTwPi57HVjSDT3N5ZQTm-mMXJq-g4Cmf50b2HAoTFKb9nI_terEG7neBahH9BB2FdnIOeI7BhXgPfavFEa0gqhNIHF_5OicFf5Nhm_vMdfdzgGCBy9uPYw5DYOEAT4Ou-m0RjKT2aY0clT2BPuyWuPf8xJZSeVofUPum12RMdZ8bEJlHZnDyfSzJ10xF79DMwlwqFb-WOrgSrkQ_Ja9U_]--></g></svg>