<svg xmlns="http://www.w3.org/2000/svg" xmlns:xlink="http://www.w3.org/1999/xlink" contentStyleType="text/css" height="1316px" preserveAspectRatio="none" style="width:1164px;height:1316px;background:#1B1B1B;" version="1.1" viewBox="0 0 1164 1316" width="1164px" zoomAndPan="magnify"><defs/><g><rect fill="#1B1B1B" height="1316" style="stroke:none;stroke-width:1.0;" width="1164" x="0" y="0"/><!--cluster pkg_halo_exchange--><g id="cluster_pkg_halo_exchange"><path d="M8.5,6 L124.5,6 A3.75,3.75 0 0 1 127,8.5 L134,28.2969 L1154.5,28.2969 A2.5,2.5 0 0 1 1157,30.7969 L1157,1306.65 A2.5,2.5 0 0 1 1154.5,1309.15 L8.5,1309.15 A2.5,2.5 0 0 1 6,1306.65 L6,8.5 A2.5,2.5 0 0 1 8.5,6 " fill="none" style="stroke:#FFFFFF;stroke-width:1.5;"/><line style="stroke:#FFFFFF;stroke-width:1.5;" x1="6" x2="134" y1="28.2969" y2="28.2969"/><text fill="#FFFFFF" font-family="sans-serif" font-size="14" font-weight="bold" lengthAdjust="spacing" textLength="115" x="10" y="20.9951">Halo Exchange</text></g><!--cluster Local exchange--><g id="cluster_Local exchange"><path d="M32.5,353.74 L156.5,353.74 A3.75,3.75 0 0 1 159,356.24 L166,376.0369 L707.5,376.0369 A2.5,2.5 0 0 1 710,378.5369 L710,929.02 A2.5,2.5 0 0 1 707.5,931.52 L32.5,931.52 A2.5,2.5 0 0 1 30,929.02 L30,356.24 A2.5,2.5 0 0 1 32.5,353.74 " fill="none" style="stroke:#FFFFFF;stroke-width:1.5;"/><line style="stroke:#FFFFFF;stroke-width:1.5;" x1="30" x2="166" y1="376.0369" y2="376.0369"/><text fill="#FFFFFF" font-family="sans-serif" font-size="14" font-weight="bold" lengthAdjust="spacing" textLength="123" x="34" y="368.7351">Local exchange</text></g><!--cluster Remote exchange--><g id="cluster_Remote exchange"><path d="M736.5,601.33 L879.5,601.33 A3.75,3.75 0 0 1 882,603.83 L889,623.6269 L1130.5,623.6269 A2.5,2.5 0 0 1 1133,626.1269 L1133,1282.65 A2.5,2.5 0 0 1 1130.5,1285.15 L736.5,1285.15 A2.5,2.5 0 0 1 734,1282.65 L734,603.83 A2.5,2.5 0 0 1 736.5,601.33 " fill="none" style="stroke:#FFFFFF;stroke-width:1.5;"/><line style="stroke:#FFFFFF;stroke-width:1.5;" x1="734" x2="889" y1="623.6269" y2="623.6269"/><text fill="#FFFFFF" font-family="sans-serif" font-size="14" font-weight="bold" lengthAdjust="spacing" textLength="142" x="738" y="616.3251">Remote exchange</text></g><!--entity block_ghost_exchange--><g id="elem_block_ghost_exchange"><rect fill="#313139" height="36.2969" rx="2.5" ry="2.5" style="stroke:#E7E7E7;stroke-width:0.5;" width="340" x="687" y="41"/><a href="../block_states/#Armon.block_ghost_exchange" target="_top" title="../block_states/#Armon.block_ghost_exchange" xlink:actuate="onRequest" xlink:href="../block_states/#Armon.block_ghost_exchange" xlink:show="new" xlink:title="../block_states/#Armon.block_ghost_exchange" xlink:type="simple"><text fill="#0000FF" font-family="monospace" font-size="14" lengthAdjust="spacing" text-decoration="underline" textLength="320" x="697" y="63.9951">block_ghost_exchange(params,&#160;state,&#160;blk)</text></a></g><g id="elem_xchg_side_loop"><ellipse cx="857.0018" cy="173.8704" fill="#313139" rx="165.8518" ry="35.5704" style="stroke:#E7E7E7;stroke-width:0.5;"/><text fill="#FFFFFF" font-family="sans-serif" font-size="14" lengthAdjust="spacing" textLength="187" x="763.5018" y="168.5686">For each side of the sweep</text><text fill="#FFFFFF" font-family="sans-serif" font-size="14" lengthAdjust="spacing" textLength="194" x="722.0018" y="184.8655">Looking at the neighbouring</text><text fill="#FFFFFF" font-family="monospace" font-size="14" lengthAdjust="spacing" textLength="72" x="920.0018" y="184.8655">other_blk</text></g><!--entity block_ghost_exchange_blk_other--><g id="elem_block_ghost_exchange_blk_other"><rect fill="#313139" height="36.2969" rx="2.5" ry="2.5" style="stroke:#E7E7E7;stroke-width:0.5;" width="428" x="643" y="270.44"/><text fill="#FFFFFF" font-family="monospace" font-size="14" lengthAdjust="spacing" textLength="408" x="653" y="293.4351">block_ghost_exchange(params,&#160;state,&#160;blk,&#160;other_blk)</text></g><!--entity cond_remote--><g id="elem_cond_remote"><polygon fill="#313139" points="988,406.88,922.5,393.74,791.5,393.74,726,406.88,791.5,420.03,922.5,420.03,988,406.88" style="stroke:#E7E7E7;stroke-width:0.5;"/><text fill="#FFFFFF" font-family="sans-serif" font-size="14" lengthAdjust="spacing" textLength="7" x="791.5" y="411.7351">If</text><a href="../blocks/#Armon.RemoteTaskBlock" target="_top" title="../blocks/#Armon.RemoteTaskBlock" xlink:actuate="onRequest" xlink:href="../blocks/#Armon.RemoteTaskBlock" xlink:show="new" xlink:title="../blocks/#Armon.RemoteTaskBlock" xlink:type="simple"><text fill="#0000FF" font-family="monospace" font-size="14" lengthAdjust="spacing" text-decoration="underline" textLength="120" x="802.5" y="411.7351">RemoteTaskBlock</text></a></g><!--entity cond_global_bc--><g id="elem_cond_global_bc"><polygon fill="#313139" points="908,520.18,862.5,507.03,771.5,507.03,726,520.18,771.5,533.33,862.5,533.33,908,520.18" style="stroke:#E7E7E7;stroke-width:0.5;"/><text fill="#FFFFFF" font-family="sans-serif" font-size="14" lengthAdjust="spacing" textLength="7" x="771.5" y="525.0251">If</text><text fill="#FFFFFF" font-family="monospace" font-size="14" lengthAdjust="spacing" textLength="80" x="782.5" y="525.0251">rank&#160;!=&#160;-1</text></g><!--entity global_bc--><g id="elem_global_bc"><rect fill="#313139" height="36.2969" rx="2.5" ry="2.5" style="stroke:#E7E7E7;stroke-width:0.5;" width="180" x="961" y="502.03"/><text fill="#FFFFFF" font-family="monospace" font-size="14" lengthAdjust="spacing" textLength="160" x="971" y="525.0251">boundary_conditions!</text></g><!--entity local_xchg_mark_ready--><g id="elem_local_xchg_mark_ready"><rect fill="#313139" height="36.2969" rx="2.5" ry="2.5" style="stroke:#E7E7E7;stroke-width:0.5;" width="212" x="398" y="388.74"/><text fill="#FFFFFF" font-family="monospace" font-size="14" lengthAdjust="spacing" textLength="192" x="408" y="411.7351">mark_ready_for_exchange!</text></g><!--entity cond_do_local_xchg--><g id="elem_cond_do_local_xchg"><polygon fill="#313139" points="408,520.18,333,507.03,183,507.03,108,520.18,183,533.33,333,533.33,408,520.18" style="stroke:#E7E7E7;stroke-width:0.5;"/><text fill="#FFFFFF" font-family="sans-serif" font-size="14" lengthAdjust="spacing" textLength="150" x="183" y="525.0251">exchange is not done</text></g><!--entity ack_local_xchg--><g id="elem_ack_local_xchg"><rect fill="#313139" height="36.2969" rx="2.5" ry="2.5" style="stroke:#E7E7E7;stroke-width:0.5;" width="211" x="460.5" y="502.03"/><text fill="#FFFFFF" font-family="sans-serif" font-size="14" lengthAdjust="spacing" textLength="191" x="470.5" y="525.0251">acknowledge the exchange</text></g><!--entity cond_local_xchg--><g id="elem_cond_local_xchg"><polygon fill="#313139" points="362,649.48,283,628.18,125,628.18,46,649.48,125,670.77,283,670.77,362,649.48" style="stroke:#E7E7E7;stroke-width:0.5;"/><text fill="#FFFFFF" font-family="monospace" font-size="14" lengthAdjust="spacing" textLength="72" x="125" y="646.1751">other_blk</text><text fill="#FFFFFF" font-family="sans-serif" font-size="14" lengthAdjust="spacing" textLength="53" x="201" y="646.1751">is ready</text><text fill="#FFFFFF" font-family="sans-serif" font-size="14" lengthAdjust="spacing" textLength="158" x="125" y="662.472">we won the atomic cas</text></g><!--entity block_ghost_exchange_blk_blk--><g id="elem_block_ghost_exchange_blk_blk"><rect fill="#313139" height="36.2969" rx="2.5" ry="2.5" style="stroke:#E7E7E7;stroke-width:0.5;" width="332" x="46" y="752.77"/><text fill="#FFFFFF" font-family="monospace" font-size="14" lengthAdjust="spacing" textLength="312" x="56" y="775.7651">block_ghost_exchange(vars&#8321;,&#160;vars&#8322;,&#160;...)</text></g><!--entity local_xchg_done--><g id="elem_local_xchg_done"><rect fill="#313139" height="36.2969" rx="2.5" ry="2.5" style="stroke:#E7E7E7;stroke-width:0.5;" width="132" x="146" y="879.22"/><text fill="#FFFFFF" font-family="monospace" font-size="14" lengthAdjust="spacing" textLength="112" x="156" y="902.2151">exchange_done!</text></g><!--entity local_xchg_pause--><g id="elem_local_xchg_pause"><polygon fill="#EE1100" points="414.5,623.18,683.5,623.18,693.5,649.4769,683.5,675.7738,414.5,675.7738,424.5,649.4769" style="stroke:#000000;stroke-width:1.0;"/><text fill="#FFFFFF" font-family="sans-serif" font-size="14" font-style="italic" lengthAdjust="spacing" textLength="61" x="523.5" y="646.1751">&#171;pause&#187;</text><text fill="#FFFFFF" font-family="sans-serif" font-size="14" lengthAdjust="spacing" textLength="60" x="434.5" y="662.472">wait until</text><text fill="#FFFFFF" font-family="monospace" font-size="14" lengthAdjust="spacing" textLength="72" x="498.5" y="662.472">other_blk</text><text fill="#FFFFFF" font-family="sans-serif" font-size="14" lengthAdjust="spacing" textLength="99" x="574.5" y="662.472">does the xchg</text></g><!--entity cond_xchg_start--><g id="elem_cond_xchg_start"><polygon fill="#313139" points="1036,649.48,964.5,636.33,821.5,636.33,750,649.48,821.5,662.63,964.5,662.63,1036,649.48" style="stroke:#E7E7E7;stroke-width:0.5;"/><text fill="#FFFFFF" font-family="sans-serif" font-size="14" lengthAdjust="spacing" textLength="143" x="821.5" y="654.3251">Is exchange started?</text></g><!--entity pack_to_array--><g id="elem_pack_to_array"><rect fill="#313139" height="36.2969" rx="2.5" ry="2.5" style="stroke:#E7E7E7;stroke-width:0.5;" width="132" x="793" y="752.77"/><text fill="#FFFFFF" font-family="monospace" font-size="14" lengthAdjust="spacing" textLength="112" x="803" y="775.7651">pack_to_array!</text></g><!--entity unpack_from_array--><g id="elem_unpack_from_array"><rect fill="#313139" height="36.2969" rx="2.5" ry="2.5" style="stroke:#E7E7E7;stroke-width:0.5;" width="164" x="750" y="1224.7"/><text fill="#FFFFFF" font-family="monospace" font-size="14" lengthAdjust="spacing" textLength="144" x="760" y="1247.6951">unpack_from_array!</text></g><!--entity start_exchange--><g id="elem_start_exchange"><path d="M794.1619,876.2083 C797.0889,870.3374 802.2932,870.2352 806.0516,875.3047 C809.6203,868.0451 814.6263,868.4595 819.7464,873.5899 C823.433,867.472 829.6603,868.9112 832.4424,874.5654 C834.9427,868.0966 840.6818,868.5818 844.0809,873.6594 C848.3156,868.4955 853.886,868.3428 857.2741,874.6343 C860.2235,869.1756 864.875,868.8831 868.8322,873.4755 C874.3407,866.0809 878.5888,868.3086 883.1019,874.5196 C886.5859,870.3163 891.3483,869.6595 894.0717,875.3618 C898.094,868.4361 902.3844,869.219 907.0933,874.6376 C911.2968,869.6831 916.5974,869.6978 920.0933,875.4933 C926.76,876.9069 927.1106,881.0275 923.8188,885.9792 C931.7013,886.8611 932.3125,892.9817 928.319,898.2271 C933.4681,903.5048 931.5322,909.383 924.1343,910.3182 C928.6089,915.4994 926.2157,920.9967 920.0634,922.6777 C916.3082,928.1308 911.2853,928.0188 907.5024,922.7102 C904.9058,930.2115 899.4161,930.8765 894.7941,924.575 C891.5872,930.7837 887.7928,932.2581 882.8256,926.3076 C879.7404,932.3236 875.4529,933.399 870.6871,928.1126 C866.7962,933.8367 860.6126,935.8777 856.606,928.2345 C852.982,933.7951 848.5093,933.4078 845.2469,927.8646 C840.6009,934.209 834.9125,931.9264 832.5666,925.5686 C827.8402,931.1547 821.0048,930.7436 818.3181,923.3326 C815.3273,929.4437 810.2089,929.6047 806.6893,923.8509 C801.7415,929.114 796.6848,927.9054 793.5341,921.7758 C787.7737,920.3177 785.9964,915.229 790.2316,910.7713 C782.4908,909.4939 780.9521,904.614 785.4116,898.532 C781.6538,893.0836 782.3968,887.1538 790.2876,886.3791 C786.7814,881.3213 787.819,877.5143 794.1619,876.2083 " fill="#22CCAA" style="stroke:#000000;stroke-width:1.0;"/><text fill="#FFFFFF" font-family="sans-serif" font-size="14" font-style="italic" lengthAdjust="spacing" textLength="43" x="834.5" y="894.0651">&#171;mpi&#187;</text><a href="../block_states/#Armon.start_exchange" target="_top" title="../block_states/#Armon.start_exchange" xlink:actuate="onRequest" xlink:href="../block_states/#Armon.start_exchange" xlink:show="new" xlink:title="../block_states/#Armon.start_exchange" xlink:type="simple"><text fill="#0000FF" font-family="monospace" font-size="14" lengthAdjust="spacing" text-decoration="underline" textLength="112" x="800" y="910.362">start_exchange</text></a></g><!--entity finish_exchange--><g id="elem_finish_exchange"><path d="M864.9459,998.8455 C868.4829,993.7993 871.6774,993.7343 875.1864,998.8736 C878.3221,993.3275 882.203,994.4866 885.5228,998.6783 C888.1736,992.5304 893.3339,991.5553 897.3508,997.3221 C900.9272,992.5656 904.783,993.0005 908.2743,997.4234 C911.4827,991.618 915.6653,991.937 919.5552,996.6957 C924.1249,990.7441 928.9003,990.9535 932.1373,997.9871 C934.4041,993.172 938.1857,991.9658 941.855,996.5347 C946.1477,990.8587 950.3511,992.0129 953.1612,997.975 C955.572,993.0638 960.6685,992.108 963.99,996.9655 C968.2875,992.662 972.338,992.4942 975.348,998.3982 C979.3701,992.4039 984.829,992.369 987.9604,999.2695 C990.6924,994.1906 994.6851,994.4238 997.7893,998.8861 C1004.191,1001.7147 1004.6625,1005.5264 1000.1567,1010.5659 C1007.1173,1010.9744 1008.9364,1016.3486 1004.5428,1021.3676 C1009.3467,1027.3429 1007.1009,1031.6857 1000.5093,1034.0314 C1005.6328,1038.5529 1004.537,1043.2137 998.6261,1045.9988 C994.9979,1050.3919 990.4454,1051.0082 987.8462,1044.9386 C984.6146,1050.2742 980.7301,1050.4248 976.4589,1046.1734 C972.5596,1051.5855 968.0629,1052.5727 963.9724,1046.3792 C961.437,1050.9648 957.1334,1052.3362 953.9046,1047.0893 C949.3169,1053.5014 945.1984,1052.2792 941.6253,1046.0998 C938.6665,1050.7001 935.6056,1051.6886 931.6173,1047.2382 C926.7,1053.2071 923.2484,1051.81 919.8179,1045.7765 C916.5575,1051.6025 911.9157,1050.7267 908.4712,1045.9741 C905.8614,1051.0416 901.7173,1051.6885 898.562,1046.5011 C894.9437,1052.0108 890.2825,1051.5583 887.4447,1045.7355 C884.7984,1051.4848 879.3007,1051.8216 876.0554,1046.3431 C870.8282,1052.6879 866.6049,1051.1796 863.1198,1044.5997 C857.578,1043.3266 855.8691,1039.0714 860.0785,1034.7787 C852.9311,1033.0452 850.8817,1028.576 855.9825,1022.6917 C851.5385,1017.4525 852.7854,1011.2628 859.9666,1009.5471 C855.9808,1003.366 858.5646,1000.2028 864.9459,998.8455 " fill="#22CCAA" style="stroke:#000000;stroke-width:1.0;"/><text fill="#FFFFFF" font-family="sans-serif" font-size="14" font-style="italic" lengthAdjust="spacing" textLength="43" x="908.5" y="1017.6651">&#171;mpi&#187;</text><a href="../block_states/#Armon.finish_exchange" target="_top" title="../block_states/#Armon.finish_exchange" xlink:actuate="onRequest" xlink:href="../block_states/#Armon.finish_exchange" xlink:show="new" xlink:title="../block_states/#Armon.finish_exchange" xlink:type="simple"><text fill="#0000FF" font-family="monospace" font-size="14" lengthAdjust="spacing" text-decoration="underline" textLength="120" x="870" y="1033.962">finish_exchange</text></a></g><!--entity cond_xchg_end--><g id="elem_cond_xchg_end"><polygon fill="#313139" points="1078,1126.41,1004,1113.26,856,1113.26,782,1126.41,856,1139.56,1004,1139.56,1078,1126.41" style="stroke:#E7E7E7;stroke-width:0.5;"/><text fill="#FFFFFF" font-family="sans-serif" font-size="14" lengthAdjust="spacing" textLength="148" x="856" y="1131.2551">Is exchange finished?</text></g><!--entity xchg_pause--><g id="elem_xchg_pause"><polygon fill="#EE1100" points="949,1216.56,1107,1216.56,1117,1242.8569,1107,1269.1538,949,1269.1538,959,1242.8569" style="stroke:#000000;stroke-width:1.0;"/><text fill="#FFFFFF" font-family="sans-serif" font-size="14" font-style="italic" lengthAdjust="spacing" textLength="61" x="1002.5" y="1239.5551">&#171;pause&#187;</text><text fill="#FFFFFF" font-family="sans-serif" font-size="14" lengthAdjust="spacing" textLength="128" x="969" y="1255.852">wait until xchg end</text></g><!--link block_ghost_exchange to xchg_side_loop--><g id="link_block_ghost_exchange_xchg_side_loop"><path d="M857,77.76 C857,93.86 857,112.13 857,132.13 " fill="none" id="block_ghost_exchange-to-xchg_side_loop" style="stroke:#E7E7E7;stroke-width:1.0;"/><polygon fill="#E7E7E7" points="857,138.13,861,129.13,857,133.13,853,129.13,857,138.13" style="stroke:#E7E7E7;stroke-width:1.0;"/></g><!--link xchg_side_loop to block_ghost_exchange_blk_other--><g id="link_xchg_side_loop_block_ghost_exchange_blk_other"><path d="M857,209.92 C857,229.95 857,248.2 857,264.21 " fill="none" id="xchg_side_loop-to-block_ghost_exchange_blk_other" style="stroke:#E7E7E7;stroke-width:1.0;"/><polygon fill="#E7E7E7" points="857,270.21,861,261.21,857,265.21,853,261.21,857,270.21" style="stroke:#E7E7E7;stroke-width:1.0;"/></g><!--link local_xchg_mark_ready to cond_do_local_xchg--><g id="link_local_xchg_mark_ready_cond_do_local_xchg"><path d="M403.79,425.52 C377.8,432.49 350.52,442.04 327,455.03 C302.8,468.4 284.3663,487.4988 271.9963,502.0488 " fill="none" id="local_xchg_mark_ready-to-cond_do_local_xchg" style="stroke:#E7E7E7;stroke-width:1.0;"/><polygon fill="#E7E7E7" points="268.11,506.62,276.987,502.354,271.3486,502.8106,270.892,497.1722,268.11,506.62" style="stroke:#E7E7E7;stroke-width:1.0;"/></g><!--link cond_do_local_xchg to ack_local_xchg--><g id="link_cond_do_local_xchg_ack_local_xchg"><path d="M410.65,520.18 C427.44,520.18 438.25,520.18 454.28,520.18 " fill="none" id="cond_do_local_xchg-to-ack_local_xchg" style="stroke:#E7E7E7;stroke-width:1.0;"/><polygon fill="#E7E7E7" points="460.28,520.18,451.28,516.18,455.28,520.18,451.28,524.18,460.28,520.18" style="stroke:#E7E7E7;stroke-width:1.0;"/><text fill="#FFFFFF" font-family="sans-serif" font-size="13" lengthAdjust="spacing" textLength="16" x="426.25" y="513.2469">no</text></g><!--link cond_do_local_xchg to cond_local_xchg--><g id="link_cond_do_local_xchg_cond_local_xchg"><path d="M238.56,533.78 C227.49,542.12 214.55,554.14 208,568.33 C199.36,587.05 198.8191,604.9353 200.3691,621.7453 " fill="none" id="cond_do_local_xchg-to-cond_local_xchg" style="stroke:#E7E7E7;stroke-width:1.0;"/><polygon fill="#E7E7E7" points="200.92,627.72,204.0767,618.3907,200.4609,622.7411,196.1105,619.1253,200.92,627.72" style="stroke:#E7E7E7;stroke-width:1.0;"/><text fill="#FFFFFF" font-family="sans-serif" font-size="13" lengthAdjust="spacing" textLength="22" x="209" y="581.3969">yes</text></g><!--link cond_local_xchg to local_xchg_pause--><g id="link_cond_local_xchg_local_xchg_pause"><path d="M363.89,649.48 C380.65,649.48 391.59,649.48 408.09,649.48 " fill="none" id="cond_local_xchg-to-local_xchg_pause" style="stroke:#E7E7E7;stroke-width:1.0;"/><polygon fill="#E7E7E7" points="414.09,649.48,405.09,645.48,409.09,649.48,405.09,653.48,414.09,649.48" style="stroke:#E7E7E7;stroke-width:1.0;"/><text fill="#FFFFFF" font-family="sans-serif" font-size="13" lengthAdjust="spacing" textLength="16" x="380.25" y="642.5469">no</text></g><!--link cond_local_xchg to block_ghost_exchange_blk_blk--><g id="link_cond_local_xchg_block_ghost_exchange_blk_blk"><path d="M205.38,671.01 C206.91,693.96 208.9692,724.7334 210.4192,746.3934 " fill="none" id="cond_local_xchg-to-block_ghost_exchange_blk_blk" style="stroke:#E7E7E7;stroke-width:1.0;"/><polygon fill="#E7E7E7" points="210.82,752.38,214.2099,743.1329,210.486,747.3912,206.2278,743.6673,210.82,752.38" style="stroke:#E7E7E7;stroke-width:1.0;"/><text fill="#FFFFFF" font-family="sans-serif" font-size="13" lengthAdjust="spacing" textLength="22" x="209" y="718.8369">yes</text></g><!--link block_ghost_exchange_blk_blk to local_xchg_done--><g id="link_block_ghost_exchange_blk_blk_local_xchg_done"><path d="M212,789.49 C212,813.21 212,849.22 212,872.89 " fill="none" id="block_ghost_exchange_blk_blk-to-local_xchg_done" style="stroke:#E7E7E7;stroke-width:1.0;"/><polygon fill="#E7E7E7" points="212,878.89,216,869.89,212,873.89,208,869.89,212,878.89" style="stroke:#E7E7E7;stroke-width:1.0;"/></g><!--link cond_xchg_start to pack_to_array--><g id="link_cond_xchg_start_pack_to_array"><path d="M889.49,662.81 C883.42,684.15 872.5727,722.2493 865.6127,746.6993 " fill="none" id="cond_xchg_start-to-pack_to_array" style="stroke:#E7E7E7;stroke-width:1.0;"/><polygon fill="#E7E7E7" points="863.97,752.47,870.2812,744.909,865.3389,747.661,862.5869,742.7187,863.97,752.47" style="stroke:#E7E7E7;stroke-width:1.0;"/><text fill="#FFFFFF" font-family="sans-serif" font-size="13" lengthAdjust="spacing" textLength="16" x="878" y="718.8369">no</text></g><!--link cond_xchg_start to finish_exchange--><g id="link_cond_xchg_start_finish_exchange"><path d="M901.24,663.05 C912.93,681.72 933.84,718.28 942,752.77 C961.82,836.6 947.7793,933.3431 937.8993,983.5131 " fill="none" id="cond_xchg_start-to-finish_exchange" style="stroke:#E7E7E7;stroke-width:1.0;"/><polygon fill="#E7E7E7" points="936.74,989.4,942.4036,981.3425,937.7061,984.4942,934.5544,979.7967,936.74,989.4" style="stroke:#E7E7E7;stroke-width:1.0;"/><text fill="#FFFFFF" font-family="sans-serif" font-size="13" lengthAdjust="spacing" textLength="22" x="952" y="832.1369">yes</text></g><!--link pack_to_array to start_exchange--><g id="link_pack_to_array_start_exchange"><path d="M858.58,789.49 C858.1,809.32 857.455,835.9418 856.875,859.9418 " fill="none" id="pack_to_array-to-start_exchange" style="stroke:#E7E7E7;stroke-width:1.0;"/><polygon fill="#E7E7E7" points="856.73,865.94,860.9463,857.0393,856.8508,860.9415,852.9486,856.846,856.73,865.94" style="stroke:#E7E7E7;stroke-width:1.0;"/></g><!--link start_exchange to finish_exchange--><g id="link_start_exchange_finish_exchange"><path d="M874.67,929.05 C885.89,947.48 897.002,965.7338 908.212,984.1638 " fill="none" id="start_exchange-to-finish_exchange" style="stroke:#E7E7E7;stroke-width:1.0;"/><polygon fill="#E7E7E7" points="911.33,989.29,910.0705,979.522,908.7317,985.0182,903.2355,983.6794,911.33,989.29" style="stroke:#E7E7E7;stroke-width:1.0;"/></g><!--link finish_exchange to cond_xchg_end--><g id="link_finish_exchange_cond_xchg_end"><path d="M930,1052.72 C930,1072.85 930,1092.08 930,1106.9 " fill="none" id="finish_exchange-to-cond_xchg_end" style="stroke:#E7E7E7;stroke-width:1.0;"/><polygon fill="#E7E7E7" points="930,1112.9,934,1103.9,930,1107.9,926,1103.9,930,1112.9" style="stroke:#E7E7E7;stroke-width:1.0;"/></g><!--link cond_xchg_end to xchg_pause--><g id="link_cond_xchg_end_xchg_pause"><path d="M941.02,1139.66 C957.42,1157.88 984.5956,1188.0808 1006.0756,1211.9408 " fill="none" id="cond_xchg_end-to-xchg_pause" style="stroke:#E7E7E7;stroke-width:1.0;"/><polygon fill="#E7E7E7" points="1010.09,1216.4,1007.0412,1207.0349,1006.7447,1212.684,1001.0956,1212.3875,1010.09,1216.4" style="stroke:#E7E7E7;stroke-width:1.0;"/><text fill="#FFFFFF" font-family="sans-serif" font-size="13" lengthAdjust="spacing" textLength="16" x="982" y="1182.6269">no</text></g><!--link cond_xchg_end to unpack_from_array--><g id="link_cond_xchg_end_unpack_from_array"><path d="M919.51,1139.66 C902.03,1160.07 870.7936,1196.5535 850.7636,1219.9335 " fill="none" id="cond_xchg_end-to-unpack_from_array" style="stroke:#E7E7E7;stroke-width:1.0;"/><polygon fill="#E7E7E7" points="846.86,1224.49,855.7531,1220.2577,850.113,1220.6929,849.6778,1215.0528,846.86,1224.49" style="stroke:#E7E7E7;stroke-width:1.0;"/><text fill="#FFFFFF" font-family="sans-serif" font-size="13" lengthAdjust="spacing" textLength="22" x="893" y="1182.6269">yes</text></g><!--link block_ghost_exchange_blk_other to cond_remote--><g id="link_block_ghost_exchange_blk_other_cond_remote"><path d="M857,307 C857,330.7 857,366.54 857,387.37 " fill="none" id="block_ghost_exchange_blk_other-to-cond_remote" style="stroke:#E7E7E7;stroke-width:1.0;"/><polygon fill="#E7E7E7" points="857,393.37,861,384.37,857,388.37,853,384.37,857,393.37" style="stroke:#E7E7E7;stroke-width:1.0;"/></g><!--link cond_remote to cond_global_bc--><g id="link_cond_remote_cond_global_bc"><path d="M852.57,420.22 C844.88,441.61 831.1912,479.7143 823.4812,501.1443 " fill="none" id="cond_remote-to-cond_global_bc" style="stroke:#E7E7E7;stroke-width:1.0;"/><polygon fill="#E7E7E7" points="821.45,506.79,828.2606,499.6755,823.1427,502.0852,820.733,496.9673,821.45,506.79" style="stroke:#E7E7E7;stroke-width:1.0;"/><text fill="#FFFFFF" font-family="sans-serif" font-size="13" lengthAdjust="spacing" textLength="22" x="840" y="468.0969">yes</text></g><!--link cond_remote to local_xchg_mark_ready--><g id="link_cond_remote_local_xchg_mark_ready"><path d="M723.62,406.88 C686.2,406.88 652.02,406.88 616.39,406.88 " fill="none" id="cond_remote-to-local_xchg_mark_ready" style="stroke:#E7E7E7;stroke-width:1.0;"/><polygon fill="#E7E7E7" points="610.39,406.88,619.39,410.88,615.39,406.88,619.39,402.88,610.39,406.88" style="stroke:#E7E7E7;stroke-width:1.0;"/><text fill="#FFFFFF" font-family="sans-serif" font-size="13" lengthAdjust="spacing" textLength="16" x="660" y="399.9469">no</text></g><!--link cond_global_bc to cond_xchg_start--><g id="link_cond_global_bc_cond_xchg_start"><path d="M824.29,533.39 C838.78,557.66 867.9845,606.5782 882.5445,630.9682 " fill="none" id="cond_global_bc-to-cond_xchg_start" style="stroke:#E7E7E7;stroke-width:1.0;"/><polygon fill="#E7E7E7" points="885.62,636.12,884.4414,626.3419,883.0571,631.8268,877.5722,630.4426,885.62,636.12" style="stroke:#E7E7E7;stroke-width:1.0;"/><text fill="#FFFFFF" font-family="sans-serif" font-size="13" lengthAdjust="spacing" textLength="22" x="856" y="581.3969">yes</text></g><!--link cond_global_bc to global_bc--><g id="link_cond_global_bc_global_bc"><path d="M909.48,520.18 C926.35,520.18 937.92,520.18 954.72,520.18 " fill="none" id="cond_global_bc-to-global_bc" style="stroke:#E7E7E7;stroke-width:1.0;"/><polygon fill="#E7E7E7" points="960.72,520.18,951.72,516.18,955.72,520.18,951.72,524.18,960.72,520.18" style="stroke:#E7E7E7;stroke-width:1.0;"/><text fill="#FFFFFF" font-family="sans-serif" font-size="13" lengthAdjust="spacing" textLength="16" x="926.5" y="513.2469">no</text></g><!--SRC=[bLPBRjim4Dth51Dbqm2s4cTPk2wQeZyWgoAxm11eYPO4oQH0qdMC88lcg3r9XvHDYJIjfW8CMCCt_pT3pQNQDtGH9PksWkS8u8vazJV1jop_p1ikuFBsDii8mPFxYj67iifgHgM4sK7IeLODgaKlKPIqP2jfs1AbizdDpHijpQyFaKKj2aX18VvE6WvVdhAIi8B6G2IqTP6MA4tfGOgEqHg0e9d2zmQrulZnCKwIwrN3ipgLYYWghoy_YGrdIIShIYwLDH53IFgk9O9iv0ICWGbYwglb4ethC48A9WmiHKQm72WhKbdbD6quR-7H7EhdAsPCILQ2FWI-1bLIa3jAMmkvvxokM054cKD6gw9SyQtGiZZcA1CfHXF7HcDvcluRqvc0jNKrafS-JmsogtG80zFfmilPOBqoQDHRN5W2tFECDD0twjaMoKbuGqIT2ahoVRhcmfgzE6JLQ2kfYQL7MaibVI85Pv1nbgSvJtlqe6twiSbM4XXNa7D6BM0PYWpJO7pNq1oLT2lfaCfuEF0L3kTiB0uFT41kJlhPKTYX7UsNABwfCa1cZiTxXZg_Y91_NdzFeFlpEe4aIVv96Vo5VLYKBc2WHwQkLhKLFDDB8zwHIi6MgQhniiyvbIPDhHt3V0xTIbeiFCD6t5iEqi9mz9GALYd0agd00LMevdOKtYDBHlMEdXoTFPMkKiYJdrJ0b-Teh4sUrr7erFLkP-35czoVTCCL3OxkaU7n3zdF5AubeMZ-qP319D3j3YsEmZpIlbB5Ko84sHzvv0Z3UbjcG6l1DwxkoK5VqOPly_6RnKGwk5FSz-xcG6hgMxSZfWlu7rVhYbMo7FZo105d7Y8QRqQ7Fkq6PVdeN1gs8UXa24FZvpNPCClfNe3K7jpBwi3ZFaJ7cbOuKtDN739jeRvBEyIsG868KTpVaES6ra6UK74meuTHwpkt1eSjbYVT33uGMTzfUGoUm7xE6F_270PC2y9gkFW0qzaGNZHyXLjWbGM-F_Gd817xL0ChLN4cZoFMQqMZgyRizxwuWzW6x_svDJieamCCBCx1phVDy8ovpUruvpaOW8y-Xi6WtPU_]--></g></svg>