<svg xmlns="http://www.w3.org/2000/svg" xmlns:xlink="http://www.w3.org/1999/xlink" contentStyleType="text/css" height="1255px" preserveAspectRatio="none" style="width:972px;height:1255px;background:#FFFFFF;" version="1.1" viewBox="0 0 972 1255" width="972px" zoomAndPan="magnify"><defs/><g><!--cluster Global Time Step--><g id="cluster_Global Time Step"><path d="M8.5,6 L142.5,6 A3.75,3.75 0 0 1 145,8.5 L152,28.2969 L962.5,28.2969 A2.5,2.5 0 0 1 965,30.7969 L965,1246.39 A2.5,2.5 0 0 1 962.5,1248.89 L8.5,1248.89 A2.5,2.5 0 0 1 6,1246.39 L6,8.5 A2.5,2.5 0 0 1 8.5,6 " fill="none" style="stroke:#000000;stroke-width:1.5;"/><line style="stroke:#000000;stroke-width:1.5;" x1="6" x2="152" y1="28.2969" y2="28.2969"/><text fill="#000000" font-family="sans-serif" font-size="14" font-weight="bold" lengthAdjust="spacing" textLength="133" x="10" y="20.9951">Global Time Step</text></g><!--cluster global_time_step--><g id="cluster_global_time_step"><rect fill="none" height="335.37" rx="2.5" ry="2.5" style="stroke:#181818;stroke-width:1.0;" width="397" x="536" y="195.55"/><path d="M658,195.55 L658,204.8469 L648,214.8469 L536,214.8469 " fill="none" style="stroke:#181818;stroke-width:1.0;"/><text fill="#000000" font-family="monospace" font-size="14" font-weight="bold" lengthAdjust="spacing" textLength="112" x="539" y="209.5451">GlobalTimeStep</text></g><!--cluster pkg_blk_time_step--><g id="cluster_pkg_blk_time_step"><path d="M40.5,57 L200.5,57 A3.75,3.75 0 0 1 203,59.5 L210,79.2969 L493.5,79.2969 A2.5,2.5 0 0 1 496,81.7969 L496,1214.39 A2.5,2.5 0 0 1 493.5,1216.89 L40.5,1216.89 A2.5,2.5 0 0 1 38,1214.39 L38,59.5 A2.5,2.5 0 0 1 40.5,57 " fill="none" style="stroke:#000000;stroke-width:1.5;"/><line style="stroke:#000000;stroke-width:1.5;" x1="38" x2="210" y1="79.2969" y2="79.2969"/><text fill="#000000" font-family="sans-serif" font-size="14" font-weight="bold" lengthAdjust="spacing" textLength="159" x="42" y="71.9951">Time step reduction</text></g><g id="elem_global_time_step_instance"><ellipse cx="844.0011" cy="118.1482" fill="#F1F1F1" rx="104.9911" ry="23.3982" style="stroke:#181818;stroke-width:0.5;"/><text fill="#000000" font-family="monospace" font-size="14" lengthAdjust="spacing" textLength="112" x="756.5011" y="120.9949">GlobalTimeStep</text><text fill="#000000" font-family="sans-serif" font-size="14" lengthAdjust="spacing" textLength="59" x="872.5011" y="120.9949">instance</text></g><!--entity global_time_step_state--><g id="elem_global_time_step_state"><rect fill="#F1F1F1" height="36.2969" rx="2.5" ry="2.5" style="stroke:#181818;stroke-width:0.5;" width="60" x="830" y="238.55"/><text fill="#000000" font-family="monospace" font-size="14" lengthAdjust="spacing" textLength="40" x="840" y="261.5451">state</text></g><!--entity global_time_step_next_cycle_dt--><g id="elem_global_time_step_next_cycle_dt"><rect fill="#F1F1F1" height="36.2969" rx="2.5" ry="2.5" style="stroke:#181818;stroke-width:0.5;" width="124" x="560" y="238.55"/><text fill="#000000" font-family="monospace" font-size="14" lengthAdjust="spacing" textLength="104" x="570" y="261.5451">next_cycle_dt</text></g><!--entity global_time_step_next_dt--><g id="elem_global_time_step_next_dt"><rect fill="#F1F1F1" height="36.2969" rx="2.5" ry="2.5" style="stroke:#181818;stroke-width:0.5;" width="76" x="719" y="238.55"/><text fill="#000000" font-family="monospace" font-size="14" lengthAdjust="spacing" textLength="56" x="729" y="261.5451">next_dt</text></g><!--entity global_time_step_contributions--><g id="elem_global_time_step_contributions"><rect fill="#F1F1F1" height="36.2969" rx="2.5" ry="2.5" style="stroke:#181818;stroke-width:0.5;" width="124" x="560" y="416.88"/><text fill="#000000" font-family="monospace" font-size="14" lengthAdjust="spacing" textLength="104" x="570" y="439.8751">contributions</text></g><!--entity time_step_state--><g id="elem_time_step_state"><rect fill="#F1F1F1" height="143.7813" rx="2.5" ry="2.5" style="stroke:#181818;stroke-width:0.5;" width="132" x="758" y="363.14"/><text fill="#000000" font-family="monospace" font-size="14" lengthAdjust="spacing" textLength="104" x="768" y="379.1351">TimeStepState</text><line style="stroke:#181818;stroke-width:1.0;" x1="759" x2="889" y1="382.4369" y2="382.4369"/><line style="stroke:#181818;stroke-width:1.0;" x1="759" x2="889" y1="384.4369" y2="384.4369"/><text fill="#000000" font-family="monospace" font-size="14" lengthAdjust="spacing" textLength="40" x="768" y="399.432">Ready</text><line style="stroke:#181818;stroke-width:1.0;" x1="759" x2="889" y1="406.7338" y2="406.7338"/><text fill="#000000" font-family="monospace" font-size="14" lengthAdjust="spacing" textLength="112" x="768" y="423.7289">AllContributed</text><line style="stroke:#181818;stroke-width:1.0;" x1="759" x2="889" y1="431.0306" y2="431.0306"/><text fill="#000000" font-family="monospace" font-size="14" lengthAdjust="spacing" textLength="64" x="768" y="448.0257">DoingMPI</text><line style="stroke:#181818;stroke-width:1.0;" x1="759" x2="889" y1="455.3275" y2="455.3275"/><text fill="#000000" font-family="monospace" font-size="14" lengthAdjust="spacing" textLength="104" x="768" y="472.3226">WaitingForMPI</text><line style="stroke:#181818;stroke-width:1.0;" x1="759" x2="889" y1="479.6244" y2="479.6244"/><text fill="#000000" font-family="monospace" font-size="14" lengthAdjust="spacing" textLength="32" x="768" y="496.6195">Done</text></g><!--entity time_step_next_time_step--><g id="elem_time_step_next_time_step"><rect fill="#F1F1F1" height="36.2969" rx="2.5" ry="2.5" style="stroke:#181818;stroke-width:0.5;" width="132" x="197" y="100"/><text fill="#000000" font-family="monospace" font-size="14" lengthAdjust="spacing" textLength="112" x="207" y="122.9951">next_time_step</text></g><!--entity cond_time_step_wait--><g id="elem_cond_time_step_wait"><polygon fill="#F1F1F1" points="464,256.69,363.5,227.25,162.5,227.25,62,256.69,162.5,286.14,363.5,286.14,464,256.69" style="stroke:#181818;stroke-width:0.5;"/><text fill="#000000" font-family="sans-serif" font-size="14" lengthAdjust="spacing" textLength="166" x="162.5" y="245.2451">MPI reduce in progress?</text><text fill="#000000" font-family="sans-serif" font-size="14" lengthAdjust="spacing" textLength="201" x="162.5" y="261.542">This means that the previous</text><text fill="#000000" font-family="sans-serif" font-size="14" lengthAdjust="spacing" textLength="148" x="162.5" y="277.8389">reduction is not done</text></g><!--entity cond_contribute_time_step--><g id="elem_cond_contribute_time_step"><polygon fill="#F1F1F1" points="388,599.07,317.5,585.92,176.5,585.92,106,599.07,176.5,612.22,317.5,612.22,388,599.07" style="stroke:#181818;stroke-width:0.5;"/><text fill="#000000" font-family="sans-serif" font-size="14" lengthAdjust="spacing" textLength="141" x="176.5" y="603.9151">Already contributed?</text></g><!--entity time_step_local--><g id="elem_time_step_local"><rect fill="#F1F1F1" height="36.2969" rx="2.5" ry="2.5" style="stroke:#181818;stroke-width:0.5;" width="140" x="177" y="689.22"/><text fill="#000000" font-family="monospace" font-size="14" lengthAdjust="spacing" textLength="120" x="187" y="712.2151">local_time_step</text></g><!--entity time_step_contribute--><g id="elem_time_step_contribute"><rect fill="#F1F1F1" height="36.2969" rx="2.5" ry="2.5" style="stroke:#181818;stroke-width:0.5;" width="156" x="169" y="785.52"/><text fill="#000000" font-family="monospace" font-size="14" lengthAdjust="spacing" textLength="136" x="179" y="808.5151">contribute_to_dt!</text></g><!--entity cond_time_step--><g id="elem_cond_time_step"><polygon fill="#F1F1F1" points="402,894.96,324.5,881.81,169.5,881.81,92,894.96,169.5,908.11,324.5,908.11,402,894.96" style="stroke:#181818;stroke-width:0.5;"/><text fill="#000000" font-family="sans-serif" font-size="14" lengthAdjust="spacing" textLength="155" x="169.5" y="899.8051">All blocks contributed?</text></g><!--entity time_step_wait--><g id="elem_time_step_wait"><path d="M268.5299,411.9427 C272.9428,405.9123 277.0884,405.9609 280.5878,412.7986 C282.935,406.9609 287.702,407.1761 291.0325,411.8187 C293.9881,407.168 298.7034,407.1909 301.0593,412.427 C303.5823,406.7588 308.816,405.4256 312.5343,411.2317 C315.4147,406.7762 320.0068,406.3695 323.1696,410.8974 C327.4083,405.3858 332.0352,405.6187 335.8424,411.3824 C339.3739,407.1074 343.6146,407.013 346.6748,411.9373 C350.2791,406.7847 353.724,406.6917 357.384,411.8796 C360.926,406.8273 364.8125,407.4645 367.2867,412.8888 C370.3102,406.9364 375.9114,407.5872 379.4025,412.3607 C386.2845,414.3395 387.2992,420.5748 382.825,425.5095 C388.8582,426.1018 392.1322,430.9887 388.7098,436.5988 C392.355,441.8304 391.0507,447.4954 383.7204,447.8674 C388.1415,452.624 387.2527,458.7253 379.9381,459.7447 C377.1986,466.0574 373.6071,466.7099 368.7298,461.8988 C364.7714,468.4379 360.2175,467.5381 356.0581,462.1117 C354.6596,467.3032 349.4362,469.5744 345.2002,465.4019 C343.0677,470.9891 338.8568,470.8783 335.4973,466.6099 C333.0729,473.5225 328.8694,475.1822 323.3388,469.6428 C319.0719,473.195 315.9834,472.5602 313.2956,467.747 C308.8549,471.4092 304.0133,469.7421 302.3507,464.3782 C298.6437,468.7945 293.4729,468.1707 290.9165,463.0051 C287.218,467.1539 281.8828,467.557 279.8799,461.2203 C275.6405,466.1049 271.1191,465.3235 269.0014,459.1357 C261.6222,457.9288 260.3311,451.9596 265.2111,446.942 C258.9079,445.6357 256.5563,441.0111 260.353,435.4391 C257.0572,430.1811 258.4398,424.3969 265.7818,424.3439 C260.9082,419.2518 262.4991,414.6185 268.5299,411.9427 " fill="#22CCAA" style="stroke:#000000;stroke-width:1.0;"/><text fill="#000000" font-family="sans-serif" font-size="14" font-style="italic" lengthAdjust="spacing" textLength="43" x="301.5" y="431.7251">&#171;mpi&#187;</text><text fill="#000000" font-family="monospace" font-size="14" lengthAdjust="spacing" textLength="96" x="275" y="448.022">wait_for_dt!</text></g><!--entity time_step_update--><g id="elem_time_step_update"><rect fill="#F1F1F1" height="36.2969" rx="2.5" ry="2.5" style="stroke:#181818;stroke-width:0.5;" width="100" x="197" y="985.11"/><text fill="#000000" font-family="monospace" font-size="14" lengthAdjust="spacing" textLength="80" x="207" y="1008.1051">update_dt!</text></g><!--entity global_time_reduction--><g id="elem_global_time_reduction"><path d="M135.1627,1092.494 C138.5502,1084.4232 146.7045,1083.0327 151.6524,1090.8773 C156.5205,1085.0385 160.8681,1085.0203 165.4013,1091.2586 C170.2939,1081.9502 177.9688,1081.4487 184,1090.078 C187.4561,1081.4838 193.9783,1080.9274 198.9499,1088.6931 C204.8273,1080.5985 213.7294,1080.9952 217.4139,1090.9378 C221.2081,1083.5136 227.273,1084.2264 231.5618,1090.4241 C236.6958,1082.3089 242.9871,1082.1249 249.2588,1089.089 C253.7869,1081.5433 260.2687,1081.8864 264.9029,1088.9755 C269.2987,1081.6212 276.9815,1082.0223 280.2769,1090.0736 C285.2234,1081.2083 291.2292,1082.747 296.432,1089.8138 C302.4149,1081.0648 310.2902,1080.7908 315.4193,1090.6835 C318.0874,1084.2105 324.4863,1082.5416 328.8634,1088.8917 C334.4094,1080.0063 343.3897,1081.3901 347.6648,1090.2391 C356.7493,1082.2201 365.0292,1085.4748 368.5,1096.41 C370.8195,1096.1189 371.6246,1097.578 370.9708,1099.5941 C381.9469,1104.0242 381.8639,1111.976 373.3317,1118.8038 C383.1478,1124.9109 384.1218,1132.3271 373.7865,1138.8905 C383.0255,1146.0324 381.952,1153.502 371.2148,1157.9484 C379.9323,1171.2263 378.1158,1180.7499 361.5,1184.8944 C362.6133,1184.2813 363.4909,1184.3598 363.7048,1185.8411 C359.5329,1193.5396 351.5055,1194.0004 346.8341,1186.3916 C343.2252,1195.0433 335.4808,1195.8671 329.6423,1188.8356 C326.2397,1196.0928 320.4844,1198.6492 314.5673,1191.4594 C309.7144,1200.5918 303.5278,1200.6885 297.9263,1192.165 C293.5048,1199.9526 287.9399,1198.9718 282.641,1193.1505 C276.705,1200.7294 269.5239,1202.9801 263.6558,1193.0767 C259.736,1201.8955 253.8788,1202.6004 248.0308,1194.9007 C242.6623,1202.752 236.9713,1201.1964 232.5658,1193.9164 C226.3939,1200.6733 221.032,1201.9933 215.7956,1192.925 C209.8296,1199.706 204.2434,1198.1394 200.7484,1190.3697 C196.2814,1199.9701 187.46,1200.2693 182.4675,1190.8755 C177.7563,1198.0424 169.9496,1197.0206 166.6211,1189.3942 C161.0809,1195.6719 154.8294,1195.2352 151.6633,1186.9549 C139.5644,1196.4866 129.5025,1191.7419 125.5,1177.8944 C126.0572,1177.2874 126.6266,1177.3783 126.8956,1178.1799 C117.5203,1174.834 115.9087,1165.7983 123.3567,1159.2991 C111.716,1154.4818 110.4555,1145.9251 119.0222,1137.1528 C111.4229,1128.5218 113.9413,1120.3708 124.8503,1117.126 C115.8396,1104.2896 117.0887,1095.5058 132.5,1089.41 C134.7811,1089.0271 136.045,1090.1457 135.1627,1092.494 " fill="#22CCAA" style="stroke:#000000;stroke-width:1.0;"/><text fill="#000000" font-family="sans-serif" font-size="14" font-style="italic" lengthAdjust="spacing" textLength="43" x="225.5" y="1109.4051">&#171;mpi&#187;</text><text fill="#000000" font-family="sans-serif" font-size="14" lengthAdjust="spacing" textLength="7" x="132.5" y="1125.702">If</text><text fill="#000000" font-family="monospace" font-size="14" lengthAdjust="spacing" textLength="144" x="143.5" y="1125.702">contributions&#160;==&#160;0</text><text fill="#000000" font-family="sans-serif" font-size="14" lengthAdjust="spacing" textLength="32" x="291.5" y="1125.702">then</text><text fill="#000000" font-family="sans-serif" font-size="14" lengthAdjust="spacing" textLength="8" x="132.5" y="1141.9989">a</text><text fill="#000000" font-family="monospace" font-size="14" lengthAdjust="spacing" textLength="112" x="144.5" y="1141.9989">MPI_IAllreduce</text><text fill="#000000" font-family="sans-serif" font-size="14" lengthAdjust="spacing" textLength="79" x="260.5" y="1141.9989">is launched</text><text fill="#000000" font-family="sans-serif" font-size="14" lengthAdjust="spacing" textLength="229" x="132.5" y="1158.2957">by the last contributor. The result</text><text fill="#000000" font-family="sans-serif" font-size="14" lengthAdjust="spacing" textLength="76" x="132.5" y="1174.5926">is stored in</text><text fill="#000000" font-family="monospace" font-size="14" lengthAdjust="spacing" textLength="104" x="212.5" y="1174.5926">next_cycle_dt</text><text fill="#000000" font-family="sans-serif" font-size="14" lengthAdjust="spacing" textLength="4" x="316.5" y="1174.5926">.</text></g><!--link global_time_step_state to time_step_state--><g id="link_global_time_step_state_time_step_state"><path d="M856.42,275.25 C852.24,295.72 846.2707,324.9714 839.7307,356.9914 " fill="none" id="global_time_step_state-to-time_step_state" style="stroke:#181818;stroke-width:1.0;"/><polygon fill="#181818" points="838.53,362.87,844.2501,354.8525,839.5306,357.9711,836.412,353.2516,838.53,362.87" style="stroke:#181818;stroke-width:1.0;"/></g><!--link time_step_next_time_step to cond_time_step_wait--><g id="link_time_step_next_time_step_cond_time_step_wait"><path d="M263,136.72 C263,159.55 263,193.72 263,221 " fill="none" id="time_step_next_time_step-to-cond_time_step_wait" style="stroke:#181818;stroke-width:1.0;"/><polygon fill="#181818" points="263,227,267,218,263,222,259,218,263,227" style="stroke:#181818;stroke-width:1.0;"/></g><!--link cond_time_step_wait to time_step_wait--><g id="link_cond_time_step_wait_time_step_wait"><path d="M272.77,286.42 C283.7,318.53 299.3875,364.6397 310.5875,397.5597 " fill="none" id="cond_time_step_wait-to-time_step_wait" style="stroke:#181818;stroke-width:1.0;"/><polygon fill="#181818" points="312.52,403.24,313.408,393.4313,310.9096,398.5065,305.8344,396.008,312.52,403.24" style="stroke:#181818;stroke-width:1.0;"/><text fill="#000000" font-family="sans-serif" font-size="13" lengthAdjust="spacing" textLength="22" x="288" y="329.2069">yes</text></g><!--link cond_time_step_wait to cond_contribute_time_step--><g id="link_cond_time_step_wait_cond_contribute_time_step"><path d="M249.55,286.49 C240.61,307.28 229.69,336.3 225,363.14 C210.94,443.6 208.52,466.92 225,546.92 C227.85,560.74 231.8138,570.1261 237.0938,580.1961 " fill="none" id="cond_time_step_wait-to-cond_contribute_time_step" style="stroke:#181818;stroke-width:1.0;"/><polygon fill="#181818" points="239.88,585.51,239.2433,575.6817,237.5582,581.0818,232.1581,579.3967,239.88,585.51" style="stroke:#181818;stroke-width:1.0;"/><text fill="#000000" font-family="sans-serif" font-size="13" lengthAdjust="spacing" textLength="16" x="226" y="439.5969">no</text></g><!--link time_step_wait to cond_contribute_time_step--><g id="link_time_step_wait_cond_contribute_time_step"><path d="M308.7,466.51 C291.85,502.45 267.1772,555.0375 255.3472,580.2675 " fill="none" id="time_step_wait-to-cond_contribute_time_step" style="stroke:#181818;stroke-width:1.0;"/><polygon fill="#181818" points="252.8,585.7,260.2425,579.2494,254.9227,581.1729,252.9992,575.8532,252.8,585.7" style="stroke:#181818;stroke-width:1.0;"/></g><!--link cond_contribute_time_step to time_step_local--><g id="link_cond_contribute_time_step_time_step_local"><path d="M247,612.68 C247,631.6 247,661.39 247,682.84 " fill="none" id="cond_contribute_time_step-to-time_step_local" style="stroke:#181818;stroke-width:1.0;"/><polygon fill="#181818" points="247,688.84,251,679.84,247,683.84,243,679.84,247,688.84" style="stroke:#181818;stroke-width:1.0;"/><text fill="#000000" font-family="sans-serif" font-size="13" lengthAdjust="spacing" textLength="16" x="248" y="655.2869">no</text></g><!--link time_step_local to time_step_contribute--><g id="link_time_step_local_time_step_contribute"><path d="M247,725.66 C247,742.57 247,762.18 247,779.16 " fill="none" id="time_step_local-to-time_step_contribute" style="stroke:#181818;stroke-width:1.0;"/><polygon fill="#181818" points="247,785.16,251,776.16,247,780.16,243,776.16,247,785.16" style="stroke:#181818;stroke-width:1.0;"/></g><!--link time_step_contribute to cond_time_step--><g id="link_time_step_contribute_cond_time_step"><path d="M247,822.31 C247,839.79 247,860.13 247,875.53 " fill="none" id="time_step_contribute-to-cond_time_step" style="stroke:#181818;stroke-width:1.0;"/><polygon fill="#181818" points="247,881.53,251,872.53,247,876.53,243,872.53,247,881.53" style="stroke:#181818;stroke-width:1.0;"/></g><!--link cond_time_step to time_step_update--><g id="link_cond_time_step_time_step_update"><path d="M247,908.57 C247,927.49 247,957.28 247,978.73 " fill="none" id="cond_time_step-to-time_step_update" style="stroke:#181818;stroke-width:1.0;"/><polygon fill="#181818" points="247,984.73,251,975.73,247,979.73,243,975.73,247,984.73" style="stroke:#181818;stroke-width:1.0;"/><text fill="#000000" font-family="sans-serif" font-size="13" lengthAdjust="spacing" textLength="22" x="248" y="951.1769">yes</text></g><!--link time_step_update to global_time_reduction--><g id="link_time_step_update_global_time_reduction"><path d="M247,1021.77 C247,1036.98 247,1053.84 247,1075.14 " fill="none" id="time_step_update-to-global_time_reduction" style="stroke:#181818;stroke-width:1.0;"/><polygon fill="#181818" points="247,1081.14,251,1072.14,247,1076.14,243,1072.14,247,1081.14" style="stroke:#181818;stroke-width:1.0;"/></g><!--link pkg_blk_time_step to global_time_step--><g id="link_pkg_blk_time_step_global_time_step"><path d="M496.222,145.0448 C496.5189,145.2668 496.8189,145.4867 497.1218,145.7045 C497.7278,146.14 498.3458,146.5669 498.9758,146.9854 C501.4955,148.6595 504.2055,150.1988 507.0932,151.6123 C512.8686,154.4393 519.3547,156.7629 526.4504,158.6543 C540.642,162.4372 557.2723,164.4916 575.5341,165.3877 C612.0575,167.1797 655.1063,164.3381 698.22,161.4238 C784.4475,155.595 870.935,149.475 906,179.55 C909.2063,182.2988 911.9145,185.4983 914.1984,188.9991 C915.3404,190.7495 916.3763,192.5753 917.3152,194.4577 C917.4326,194.693 917.5484,194.9292 917.6628,195.1662 C917.72,195.2847 915.2047,189.9827 915.2611,190.1016 " fill="none" id="pkg_blk_time_step-to-global_time_step" style="stroke:#181818;stroke-width:1.0;"/><polygon fill="#181818" points="917.8332,195.5224,917.5889,185.6765,915.6898,191.0051,910.3612,189.106,917.8332,195.5224" style="stroke:#181818;stroke-width:1.0;"/></g><!--link global_time_step_instance to global_time_step--><g id="link_global_time_step_instance_global_time_step"><path d="M872.82,141.13 C884.7,151.57 897.62,164.95 906,179.55 C908.1038,183.2125 909.9766,187.1045 911.6435,191.1168 C912.0603,192.1199 912.4641,193.1304 912.8555,194.1468 C912.9534,194.4009 913.0504,194.6554 913.1467,194.9102 C913.1949,195.0376 911.139,189.546 911.1867,189.6736 " fill="none" id="global_time_step_instance-to-global_time_step" style="stroke:#181818;stroke-width:1.0;"/><polygon fill="#181818" points="913.2906,195.2926,913.8808,185.4615,911.5374,190.6101,906.3887,188.2667,913.2906,195.2926" style="stroke:#181818;stroke-width:1.0;"/></g><!--SRC=[ZLHDZzCm4BtdLmpXJ6dtY4fNi2jMbK12x4eSq2foxMaQrRKZsu6jKFyx4wTDujGXcqEbphmtNtupI-kE4bV9x50My3S1-Cpu_i7eIeaxBRM1jpStd3D6dg-5mgTTmVSAhON5sTAWDf9eoIb9PYMhBCOZ8IuMy_ah8otVdojBIZAm725za7h393mL1uH7XsNgqm1i3IDBcfu1jT-xqnIOXTmRCqVMp9BvJAe_WzmnbKjFjeuv7E5atXddANnn6JzoYPbmO_m0z9yu4n76k5mhPufDvGgjx5Y409IqWJWp0WQTmg_MNNzfUfdfOpEamFkHlW7y1p9n7C3UqJU0VPBoxb8KYcdylIvK_ktxUXhvanMEi5-qUHNyNgj-Ly_TTE9Ae1WhYAdZr31f1JYpKKr2eGYkECOVwU9juhJIzvhtwZKeAbu_eUUN-ppRoFsqkhryMjHP8WDrjN_R43jyORbMGD8HlIB_q7G74g4nDwKXDGYbqRcXtRuDCBJo5Wx856NUCKS_I4ZyNUZA1i2sHo22qWu4lK_lTORbaP1ChJZWdPfkVOU-yCuQQJ6OajIy_nfNO_B-YHMa99eMzSqLkKF46f1q-JJVsv4UhWldKbUYpbo_HhRLvf9qkOJwcAzMOVeQ5Y-zAWNfDrfpuqe6IVkgxTwgonjAOxs5mOMYam5pIaK2K06K4PAKbArf7esQweMn85cb-0v50DuSlO8aiwuRcZOpqXbIWxQIBi1J74j-5BL2h-xsBBRzOmlYzp-o5DsS8WiJtWnl-W17j9EaKH4JN-b8iTFCC6SqTbYkL_vOliOP4Y9gZpaZanoPno1-eyp11A_SDIUgrlwrlZwYGrfRrkYzZbDE_m00]--></g></svg>