<svg xmlns="http://www.w3.org/2000/svg" xmlns:xlink="http://www.w3.org/1999/xlink" contentStyleType="text/css" height="1314px" preserveAspectRatio="none" style="width:1164px;height:1314px;background:#FFFFFF;" version="1.1" viewBox="0 0 1164 1314" width="1164px" zoomAndPan="magnify"><defs/><g><!--cluster pkg_halo_exchange--><g id="cluster_pkg_halo_exchange"><path d="M8.5,6 L124.5,6 A3.75,3.75 0 0 1 127,8.5 L134,28.2969 L1154.5,28.2969 A2.5,2.5 0 0 1 1157,30.7969 L1157,1304.65 A2.5,2.5 0 0 1 1154.5,1307.15 L8.5,1307.15 A2.5,2.5 0 0 1 6,1304.65 L6,8.5 A2.5,2.5 0 0 1 8.5,6 " fill="none" style="stroke:#000000;stroke-width:1.5;"/><line style="stroke:#000000;stroke-width:1.5;" x1="6" x2="134" y1="28.2969" y2="28.2969"/><text fill="#000000" font-family="sans-serif" font-size="14" font-weight="bold" lengthAdjust="spacing" textLength="115" x="10" y="20.9951">Halo Exchange</text></g><!--cluster Local exchange--><g id="cluster_Local exchange"><path d="M32.5,350.74 L156.5,350.74 A3.75,3.75 0 0 1 159,353.24 L166,373.0369 L707.5,373.0369 A2.5,2.5 0 0 1 710,375.5369 L710,939.17 A2.5,2.5 0 0 1 707.5,941.67 L32.5,941.67 A2.5,2.5 0 0 1 30,939.17 L30,353.24 A2.5,2.5 0 0 1 32.5,350.74 " fill="none" style="stroke:#000000;stroke-width:1.5;"/><line style="stroke:#000000;stroke-width:1.5;" x1="30" x2="166" y1="373.0369" y2="373.0369"/><text fill="#000000" font-family="sans-serif" font-size="14" font-weight="bold" lengthAdjust="spacing" textLength="123" x="34" y="365.7351">Local exchange</text></g><!--cluster Remote exchange--><g id="cluster_Remote exchange"><path d="M736.5,598.33 L879.5,598.33 A3.75,3.75 0 0 1 882,600.83 L889,620.6269 L1130.5,620.6269 A2.5,2.5 0 0 1 1133,623.1269 L1133,1280.65 A2.5,2.5 0 0 1 1130.5,1283.15 L736.5,1283.15 A2.5,2.5 0 0 1 734,1280.65 L734,600.83 A2.5,2.5 0 0 1 736.5,598.33 " fill="none" style="stroke:#000000;stroke-width:1.5;"/><line style="stroke:#000000;stroke-width:1.5;" x1="734" x2="889" y1="620.6269" y2="620.6269"/><text fill="#000000" font-family="sans-serif" font-size="14" font-weight="bold" lengthAdjust="spacing" textLength="142" x="738" y="613.3251">Remote exchange</text></g><!--entity block_ghost_exchange--><g id="elem_block_ghost_exchange"><rect fill="#F1F1F1" height="36.2969" rx="2.5" ry="2.5" style="stroke:#181818;stroke-width:0.5;" width="340" x="687" y="41"/><text fill="#000000" font-family="monospace" font-size="14" lengthAdjust="spacing" textLength="320" x="697" y="63.9951">block_ghost_exchange(params,&#160;state,&#160;blk)</text></g><g id="elem_xchg_side_loop"><ellipse cx="857.0018" cy="172.8704" fill="#F1F1F1" rx="165.8518" ry="35.5704" style="stroke:#181818;stroke-width:0.5;"/><text fill="#000000" font-family="sans-serif" font-size="14" lengthAdjust="spacing" textLength="187" x="763.5018" y="167.5686">For each side of the sweep</text><text fill="#000000" font-family="sans-serif" font-size="14" lengthAdjust="spacing" textLength="194" x="722.0018" y="183.8655">Looking at the neighbouring</text><text fill="#000000" font-family="monospace" font-size="14" lengthAdjust="spacing" textLength="72" x="920.0018" y="183.8655">other_blk</text></g><!--entity block_ghost_exchange_blk_other--><g id="elem_block_ghost_exchange_blk_other"><rect fill="#F1F1F1" height="36.2969" rx="2.5" ry="2.5" style="stroke:#181818;stroke-width:0.5;" width="428" x="643" y="268.44"/><text fill="#000000" font-family="monospace" font-size="14" lengthAdjust="spacing" textLength="408" x="653" y="291.4351">block_ghost_exchange(params,&#160;state,&#160;blk,&#160;other_blk)</text></g><!--entity cond_remote--><g id="elem_cond_remote"><polygon fill="#F1F1F1" points="988,403.88,922.5,390.74,791.5,390.74,726,403.88,791.5,417.03,922.5,417.03,988,403.88" style="stroke:#181818;stroke-width:0.5;"/><text fill="#000000" font-family="sans-serif" font-size="14" lengthAdjust="spacing" textLength="7" x="791.5" y="408.7351">If</text><text fill="#000000" font-family="monospace" font-size="14" lengthAdjust="spacing" textLength="120" x="802.5" y="408.7351">RemoteTaskBlock</text></g><!--entity cond_global_bc--><g id="elem_cond_global_bc"><polygon fill="#F1F1F1" points="908,517.18,862.5,504.03,771.5,504.03,726,517.18,771.5,530.33,862.5,530.33,908,517.18" style="stroke:#181818;stroke-width:0.5;"/><text fill="#000000" font-family="sans-serif" font-size="14" lengthAdjust="spacing" textLength="7" x="771.5" y="522.0251">If</text><text fill="#000000" font-family="monospace" font-size="14" lengthAdjust="spacing" textLength="80" x="782.5" y="522.0251">rank&#160;!=&#160;-1</text></g><!--entity global_bc--><g id="elem_global_bc"><rect fill="#F1F1F1" height="36.2969" rx="2.5" ry="2.5" style="stroke:#181818;stroke-width:0.5;" width="180" x="961" y="499.03"/><text fill="#000000" font-family="monospace" font-size="14" lengthAdjust="spacing" textLength="160" x="971" y="522.0251">boundary_conditions!</text></g><!--entity local_xchg_mark_ready--><g id="elem_local_xchg_mark_ready"><rect fill="#F1F1F1" height="36.2969" rx="2.5" ry="2.5" style="stroke:#181818;stroke-width:0.5;" width="212" x="398" y="385.74"/><text fill="#000000" font-family="monospace" font-size="14" lengthAdjust="spacing" textLength="192" x="408" y="408.7351">mark_ready_for_exchange!</text></g><!--entity cond_do_local_xchg--><g id="elem_cond_do_local_xchg"><polygon fill="#F1F1F1" points="408,517.18,333,504.03,183,504.03,108,517.18,183,530.33,333,530.33,408,517.18" style="stroke:#181818;stroke-width:0.5;"/><text fill="#000000" font-family="sans-serif" font-size="14" lengthAdjust="spacing" textLength="150" x="183" y="522.0251">exchange is not done</text></g><!--entity ack_local_xchg--><g id="elem_ack_local_xchg"><rect fill="#F1F1F1" height="36.2969" rx="2.5" ry="2.5" style="stroke:#181818;stroke-width:0.5;" width="211" x="460.5" y="499.03"/><text fill="#000000" font-family="sans-serif" font-size="14" lengthAdjust="spacing" textLength="191" x="470.5" y="522.0251">acknowledge the exchange</text></g><!--entity cond_local_xchg--><g id="elem_cond_local_xchg"><polygon fill="#F1F1F1" points="362,646.48,283,625.18,125,625.18,46,646.48,125,667.77,283,667.77,362,646.48" style="stroke:#181818;stroke-width:0.5;"/><text fill="#000000" font-family="monospace" font-size="14" lengthAdjust="spacing" textLength="72" x="125" y="643.1751">other_blk</text><text fill="#000000" font-family="sans-serif" font-size="14" lengthAdjust="spacing" textLength="53" x="201" y="643.1751">is ready</text><text fill="#000000" font-family="sans-serif" font-size="14" lengthAdjust="spacing" textLength="158" x="125" y="659.472">we won the atomic cas</text></g><!--entity block_ghost_exchange_blk_blk--><g id="elem_block_ghost_exchange_blk_blk"><rect fill="#F1F1F1" height="36.2969" rx="2.5" ry="2.5" style="stroke:#181818;stroke-width:0.5;" width="332" x="46" y="762.92"/><text fill="#000000" font-family="monospace" font-size="14" lengthAdjust="spacing" textLength="312" x="56" y="785.9151">block_ghost_exchange(vars&#8321;,&#160;vars&#8322;,&#160;...)</text></g><!--entity local_xchg_done--><g id="elem_local_xchg_done"><rect fill="#F1F1F1" height="36.2969" rx="2.5" ry="2.5" style="stroke:#181818;stroke-width:0.5;" width="132" x="146" y="889.37"/><text fill="#000000" font-family="monospace" font-size="14" lengthAdjust="spacing" textLength="112" x="156" y="912.3651">exchange_done!</text></g><!--entity local_xchg_pause--><g id="elem_local_xchg_pause"><polygon fill="#EE1100" points="414.5,620.18,683.5,620.18,693.5,646.4769,683.5,672.7738,414.5,672.7738,424.5,646.4769" style="stroke:#000000;stroke-width:1.0;"/><text fill="#000000" font-family="sans-serif" font-size="14" font-style="italic" lengthAdjust="spacing" textLength="61" x="523.5" y="643.1751">&#171;pause&#187;</text><text fill="#000000" font-family="sans-serif" font-size="14" lengthAdjust="spacing" textLength="60" x="434.5" y="659.472">wait until</text><text fill="#000000" font-family="monospace" font-size="14" lengthAdjust="spacing" textLength="72" x="498.5" y="659.472">other_blk</text><text fill="#000000" font-family="sans-serif" font-size="14" lengthAdjust="spacing" textLength="99" x="574.5" y="659.472">does the xchg</text></g><!--entity cond_xchg_start--><g id="elem_cond_xchg_start"><polygon fill="#F1F1F1" points="1036,646.48,964.5,633.33,821.5,633.33,750,646.48,821.5,659.63,964.5,659.63,1036,646.48" style="stroke:#181818;stroke-width:0.5;"/><text fill="#000000" font-family="sans-serif" font-size="14" lengthAdjust="spacing" textLength="143" x="821.5" y="651.3251">Is exchange started?</text></g><!--entity pack_to_array--><g id="elem_pack_to_array"><rect fill="#F1F1F1" height="36.2969" rx="2.5" ry="2.5" style="stroke:#181818;stroke-width:0.5;" width="132" x="786" y="889.37"/><text fill="#000000" font-family="monospace" font-size="14" lengthAdjust="spacing" textLength="112" x="796" y="912.3651">pack_to_array!</text></g><!--entity unpack_from_array--><g id="elem_unpack_from_array"><rect fill="#F1F1F1" height="36.2969" rx="2.5" ry="2.5" style="stroke:#181818;stroke-width:0.5;" width="164" x="750" y="1222.7"/><text fill="#000000" font-family="monospace" font-size="14" lengthAdjust="spacing" textLength="144" x="760" y="1245.6951">unpack_from_array!</text></g><!--entity start_exchange--><g id="elem_start_exchange"><path d="M787.1619,759.9083 C790.0889,754.0374 795.2932,753.9352 799.0516,759.0047 C802.6203,751.7451 807.6263,752.1595 812.7464,757.2899 C816.433,751.172 822.6603,752.6112 825.4424,758.2654 C827.9427,751.7966 833.6818,752.2818 837.0809,757.3594 C841.3156,752.1955 846.886,752.0428 850.2741,758.3343 C853.2235,752.8756 857.875,752.5831 861.8322,757.1755 C867.3407,749.7809 871.5888,752.0086 876.1019,758.2196 C879.5859,754.0163 884.3483,753.3595 887.0717,759.0618 C891.094,752.1361 895.3844,752.919 900.0933,758.3376 C904.2968,753.3831 909.5974,753.3978 913.0933,759.1933 C919.76,760.6069 920.1106,764.7275 916.8188,769.6792 C924.7013,770.5611 925.3125,776.6817 921.319,781.9271 C926.4681,787.2048 924.5322,793.083 917.1343,794.0182 C921.6089,799.1994 919.2157,804.6967 913.0634,806.3777 C909.3082,811.8308 904.2853,811.7188 900.5024,806.4102 C897.9058,813.9115 892.4161,814.5765 887.7941,808.275 C884.5872,814.4837 880.7928,815.9581 875.8256,810.0076 C872.7404,816.0236 868.4529,817.099 863.6871,811.8126 C859.7962,817.5367 853.6126,819.5777 849.606,811.9345 C845.982,817.4951 841.5093,817.1078 838.2469,811.5646 C833.6009,817.909 827.9125,815.6264 825.5666,809.2686 C820.8402,814.8547 814.0048,814.4436 811.3181,807.0326 C808.3273,813.1437 803.2089,813.3047 799.6893,807.5509 C794.7415,812.814 789.6848,811.6054 786.5341,805.4758 C780.7737,804.0177 778.9964,798.929 783.2316,794.4713 C775.4908,793.1939 773.9521,788.314 778.4116,782.232 C774.6538,776.7836 775.3968,770.8538 783.2876,770.0791 C779.7814,765.0213 780.819,761.2143 787.1619,759.9083 " fill="#22CCAA" style="stroke:#000000;stroke-width:1.0;"/><text fill="#000000" font-family="sans-serif" font-size="14" font-style="italic" lengthAdjust="spacing" textLength="43" x="827.5" y="777.7651">&#171;mpi&#187;</text><text fill="#000000" font-family="monospace" font-size="14" lengthAdjust="spacing" textLength="112" x="793" y="794.062">start_exchange</text></g><!--entity finish_exchange--><g id="elem_finish_exchange"><path d="M849.9459,997.8455 C853.4829,992.7993 856.6774,992.7343 860.1864,997.8736 C863.3221,992.3275 867.203,993.4866 870.5228,997.6783 C873.1736,991.5304 878.3339,990.5553 882.3508,996.3221 C885.9272,991.5656 889.783,992.0005 893.2743,996.4234 C896.4827,990.618 900.6653,990.937 904.5552,995.6957 C909.1249,989.7441 913.9003,989.9535 917.1373,996.9871 C919.4041,992.172 923.1857,990.9658 926.855,995.5347 C931.1477,989.8587 935.3511,991.0129 938.1612,996.975 C940.572,992.0638 945.6685,991.108 948.99,995.9655 C953.2875,991.662 957.338,991.4942 960.348,997.3982 C964.3701,991.4039 969.829,991.369 972.9604,998.2695 C975.6924,993.1906 979.6851,993.4238 982.7893,997.8861 C989.191,1000.7147 989.6625,1004.5264 985.1567,1009.5659 C992.1173,1009.9744 993.9364,1015.3486 989.5428,1020.3676 C994.3467,1026.3429 992.1009,1030.6857 985.5093,1033.0314 C990.6328,1037.5529 989.537,1042.2137 983.6261,1044.9988 C979.9979,1049.3919 975.4454,1050.0082 972.8462,1043.9386 C969.6146,1049.2742 965.7301,1049.4248 961.4589,1045.1734 C957.5596,1050.5855 953.0629,1051.5727 948.9724,1045.3792 C946.437,1049.9648 942.1334,1051.3362 938.9046,1046.0893 C934.3169,1052.5014 930.1984,1051.2792 926.6253,1045.0998 C923.6665,1049.7001 920.6056,1050.6886 916.6173,1046.2382 C911.7,1052.2071 908.2484,1050.81 904.8179,1044.7765 C901.5575,1050.6025 896.9157,1049.7267 893.4712,1044.9741 C890.8614,1050.0416 886.7173,1050.6885 883.562,1045.5011 C879.9437,1051.0108 875.2825,1050.5583 872.4447,1044.7355 C869.7984,1050.4848 864.3007,1050.8216 861.0554,1045.3431 C855.8282,1051.6879 851.6049,1050.1796 848.1198,1043.5997 C842.578,1042.3266 840.8691,1038.0714 845.0785,1033.7787 C837.9311,1032.0452 835.8817,1027.576 840.9825,1021.6917 C836.5385,1016.4525 837.7854,1010.2628 844.9666,1008.5471 C840.9808,1002.366 843.5646,999.2028 849.9459,997.8455 " fill="#22CCAA" style="stroke:#000000;stroke-width:1.0;"/><text fill="#000000" font-family="sans-serif" font-size="14" font-style="italic" lengthAdjust="spacing" textLength="43" x="893.5" y="1016.6651">&#171;mpi&#187;</text><text fill="#000000" font-family="monospace" font-size="14" lengthAdjust="spacing" textLength="120" x="855" y="1032.962">finish_exchange</text></g><!--entity cond_xchg_end--><g id="elem_cond_xchg_end"><polygon fill="#F1F1F1" points="1063,1124.41,989,1111.26,841,1111.26,767,1124.41,841,1137.56,989,1137.56,1063,1124.41" style="stroke:#181818;stroke-width:0.5;"/><text fill="#000000" font-family="sans-serif" font-size="14" lengthAdjust="spacing" textLength="148" x="841" y="1129.2551">Is exchange finished?</text></g><!--entity xchg_pause--><g id="elem_xchg_pause"><polygon fill="#EE1100" points="949,1214.56,1107,1214.56,1117,1240.8569,1107,1267.1538,949,1267.1538,959,1240.8569" style="stroke:#000000;stroke-width:1.0;"/><text fill="#000000" font-family="sans-serif" font-size="14" font-style="italic" lengthAdjust="spacing" textLength="61" x="1002.5" y="1237.5551">&#171;pause&#187;</text><text fill="#000000" font-family="sans-serif" font-size="14" lengthAdjust="spacing" textLength="128" x="969" y="1253.852">wait until xchg end</text></g><!--link block_ghost_exchange to xchg_side_loop--><g id="link_block_ghost_exchange_xchg_side_loop"><path d="M857,77.61 C857,93.44 857,111.25 857,130.98 " fill="none" id="block_ghost_exchange-to-xchg_side_loop" style="stroke:#181818;stroke-width:1.0;"/><polygon fill="#181818" points="857,136.98,861,127.98,857,131.98,853,127.98,857,136.98" style="stroke:#181818;stroke-width:1.0;"/></g><!--link xchg_side_loop to block_ghost_exchange_blk_other--><g id="link_xchg_side_loop_block_ghost_exchange_blk_other"><path d="M857,208.91 C857,228.62 857,246.36 857,262.16 " fill="none" id="xchg_side_loop-to-block_ghost_exchange_blk_other" style="stroke:#181818;stroke-width:1.0;"/><polygon fill="#181818" points="857,268.16,861,259.16,857,263.16,853,259.16,857,268.16" style="stroke:#181818;stroke-width:1.0;"/></g><!--link local_xchg_mark_ready to cond_do_local_xchg--><g id="link_local_xchg_mark_ready_cond_do_local_xchg"><path d="M410.49,422.43 C384.18,429.49 356.17,439.12 332,452.03 C306.66,465.58 286.6183,484.8084 273.1383,499.2884 " fill="none" id="local_xchg_mark_ready-to-cond_do_local_xchg" style="stroke:#181818;stroke-width:1.0;"/><polygon fill="#181818" points="269.05,503.68,278.1101,499.8182,272.4569,500.0204,272.2547,494.3671,269.05,503.68" style="stroke:#181818;stroke-width:1.0;"/></g><!--link cond_do_local_xchg to ack_local_xchg--><g id="link_cond_do_local_xchg_ack_local_xchg"><path d="M410.65,517.18 C427.44,517.18 438.25,517.18 454.28,517.18 " fill="none" id="cond_do_local_xchg-to-ack_local_xchg" style="stroke:#181818;stroke-width:1.0;"/><polygon fill="#181818" points="460.28,517.18,451.28,513.18,455.28,517.18,451.28,521.18,460.28,517.18" style="stroke:#181818;stroke-width:1.0;"/><text fill="#000000" font-family="sans-serif" font-size="13" lengthAdjust="spacing" textLength="16" x="426.25" y="510.2469">no</text></g><!--link cond_do_local_xchg to cond_local_xchg--><g id="link_cond_do_local_xchg_cond_local_xchg"><path d="M238.56,530.78 C227.49,539.12 214.55,551.14 208,565.33 C199.36,584.05 198.8191,601.9353 200.3691,618.7453 " fill="none" id="cond_do_local_xchg-to-cond_local_xchg" style="stroke:#181818;stroke-width:1.0;"/><polygon fill="#181818" points="200.92,624.72,204.0767,615.3907,200.4609,619.7411,196.1105,616.1253,200.92,624.72" style="stroke:#181818;stroke-width:1.0;"/><text fill="#000000" font-family="sans-serif" font-size="13" lengthAdjust="spacing" textLength="22" x="209" y="578.3969">yes</text></g><!--link cond_local_xchg to local_xchg_pause--><g id="link_cond_local_xchg_local_xchg_pause"><path d="M363.89,646.48 C380.65,646.48 391.59,646.48 408.09,646.48 " fill="none" id="cond_local_xchg-to-local_xchg_pause" style="stroke:#181818;stroke-width:1.0;"/><polygon fill="#181818" points="414.09,646.48,405.09,642.48,409.09,646.48,405.09,650.48,414.09,646.48" style="stroke:#181818;stroke-width:1.0;"/><text fill="#000000" font-family="sans-serif" font-size="13" lengthAdjust="spacing" textLength="16" x="380.25" y="639.5469">no</text></g><!--link cond_local_xchg to block_ghost_exchange_blk_blk--><g id="link_cond_local_xchg_block_ghost_exchange_blk_blk"><path d="M205.25,668.2 C206.81,694.13 209.1089,732.0909 210.5789,756.4709 " fill="none" id="cond_local_xchg-to-block_ghost_exchange_blk_blk" style="stroke:#181818;stroke-width:1.0;"/><polygon fill="#181818" points="210.94,762.46,214.3911,753.2356,210.6391,757.4691,206.4056,753.7171,210.94,762.46" style="stroke:#181818;stroke-width:1.0;"/><text fill="#000000" font-family="sans-serif" font-size="13" lengthAdjust="spacing" textLength="22" x="209" y="715.8369">yes</text></g><!--link block_ghost_exchange_blk_blk to local_xchg_done--><g id="link_block_ghost_exchange_blk_blk_local_xchg_done"><path d="M212,799.64 C212,823.36 212,859.37 212,883.04 " fill="none" id="block_ghost_exchange_blk_blk-to-local_xchg_done" style="stroke:#181818;stroke-width:1.0;"/><polygon fill="#181818" points="212,889.04,216,880.04,212,884.04,208,880.04,212,889.04" style="stroke:#181818;stroke-width:1.0;"/></g><!--link cond_xchg_start to start_exchange--><g id="link_cond_xchg_start_start_exchange"><path d="M888.94,659.71 C882.24,679.91 870.549,715.1151 861.099,743.6051 " fill="none" id="cond_xchg_start-to-start_exchange" style="stroke:#181818;stroke-width:1.0;"/><polygon fill="#181818" points="859.21,749.3,865.84,742.017,860.7841,744.5543,858.2469,739.4983,859.21,749.3" style="stroke:#181818;stroke-width:1.0;"/><text fill="#000000" font-family="sans-serif" font-size="13" lengthAdjust="spacing" textLength="16" x="874" y="715.8369">no</text></g><!--link cond_xchg_start to finish_exchange--><g id="link_cond_xchg_start_finish_exchange"><path d="M900.3,659.85 C910.87,678.56 929.94,715.5 937,749.77 C941.99,774.01 942.88,896.75 935,949.67 C933.08,962.55 931.1869,970.6661 927.5169,982.5761 " fill="none" id="cond_xchg_start-to-finish_exchange" style="stroke:#181818;stroke-width:1.0;"/><polygon fill="#181818" points="925.75,988.31,932.223,980.887,927.2224,983.5317,924.5777,978.5312,925.75,988.31" style="stroke:#181818;stroke-width:1.0;"/><text fill="#000000" font-family="sans-serif" font-size="13" lengthAdjust="spacing" textLength="22" x="941" y="855.4369">yes</text></g><!--link start_exchange to pack_to_array--><g id="link_start_exchange_pack_to_array"><path d="M849.74,812.83 C850.32,836.87 850.967,863.4217 851.437,883.1417 " fill="none" id="start_exchange-to-pack_to_array" style="stroke:#181818;stroke-width:1.0;"/><polygon fill="#181818" points="851.58,889.14,855.3644,880.0472,851.4609,884.1414,847.3667,880.2379,851.58,889.14" style="stroke:#181818;stroke-width:1.0;"/></g><!--link pack_to_array to finish_exchange--><g id="link_pack_to_array_finish_exchange"><path d="M861.84,925.77 C871.4,942.52 883.1276,963.078 894.6476,983.278 " fill="none" id="pack_to_array-to-finish_exchange" style="stroke:#181818;stroke-width:1.0;"/><polygon fill="#181818" points="897.62,988.49,896.6361,978.6904,895.143,984.1467,889.6868,982.6536,897.62,988.49" style="stroke:#181818;stroke-width:1.0;"/></g><!--link finish_exchange to cond_xchg_end--><g id="link_finish_exchange_cond_xchg_end"><path d="M915,1051.7 C915,1071.5 915,1090.2 915,1104.83 " fill="none" id="finish_exchange-to-cond_xchg_end" style="stroke:#181818;stroke-width:1.0;"/><polygon fill="#181818" points="915,1110.83,919,1101.83,915,1105.83,911,1101.83,915,1110.83" style="stroke:#181818;stroke-width:1.0;"/></g><!--link cond_xchg_end to xchg_pause--><g id="link_cond_xchg_end_xchg_pause"><path d="M927.63,1137.66 C946.42,1155.88 977.8422,1186.3635 1002.4522,1210.2235 " fill="none" id="cond_xchg_end-to-xchg_pause" style="stroke:#181818;stroke-width:1.0;"/><polygon fill="#181818" points="1006.76,1214.4,1003.0827,1205.2634,1003.1702,1210.9196,997.514,1211.0071,1006.76,1214.4" style="stroke:#181818;stroke-width:1.0;"/><text fill="#000000" font-family="sans-serif" font-size="13" lengthAdjust="spacing" textLength="16" x="975" y="1180.6269">no</text></g><!--link cond_xchg_end to unpack_from_array--><g id="link_cond_xchg_end_unpack_from_array"><path d="M906.12,1137.66 C891.31,1158.07 865.0731,1194.2533 848.1131,1217.6333 " fill="none" id="cond_xchg_end-to-unpack_from_array" style="stroke:#181818;stroke-width:1.0;"/><polygon fill="#181818" points="844.59,1222.49,853.1125,1217.5536,847.5259,1218.4427,846.6368,1212.8562,844.59,1222.49" style="stroke:#181818;stroke-width:1.0;"/><text fill="#000000" font-family="sans-serif" font-size="13" lengthAdjust="spacing" textLength="22" x="884" y="1180.6269">yes</text></g><!--link block_ghost_exchange_blk_other to cond_remote--><g id="link_block_ghost_exchange_blk_other_cond_remote"><path d="M857,305.1 C857,328.66 857,363.98 857,384.54 " fill="none" id="block_ghost_exchange_blk_other-to-cond_remote" style="stroke:#181818;stroke-width:1.0;"/><polygon fill="#181818" points="857,390.54,861,381.54,857,385.54,853,381.54,857,390.54" style="stroke:#181818;stroke-width:1.0;"/></g><!--link cond_remote to cond_global_bc--><g id="link_cond_remote_cond_global_bc"><path d="M852.57,417.22 C844.88,438.61 831.1912,476.7143 823.4812,498.1443 " fill="none" id="cond_remote-to-cond_global_bc" style="stroke:#181818;stroke-width:1.0;"/><polygon fill="#181818" points="821.45,503.79,828.2606,496.6755,823.1427,499.0852,820.733,493.9673,821.45,503.79" style="stroke:#181818;stroke-width:1.0;"/><text fill="#000000" font-family="sans-serif" font-size="13" lengthAdjust="spacing" textLength="22" x="840" y="465.0969">yes</text></g><!--link cond_remote to local_xchg_mark_ready--><g id="link_cond_remote_local_xchg_mark_ready"><path d="M723.62,403.88 C686.2,403.88 652.02,403.88 616.39,403.88 " fill="none" id="cond_remote-to-local_xchg_mark_ready" style="stroke:#181818;stroke-width:1.0;"/><polygon fill="#181818" points="610.39,403.88,619.39,407.88,615.39,403.88,619.39,399.88,610.39,403.88" style="stroke:#181818;stroke-width:1.0;"/><text fill="#000000" font-family="sans-serif" font-size="13" lengthAdjust="spacing" textLength="16" x="660" y="396.9469">no</text></g><!--link cond_global_bc to cond_xchg_start--><g id="link_cond_global_bc_cond_xchg_start"><path d="M824.29,530.39 C838.78,554.66 867.9845,603.5782 882.5445,627.9682 " fill="none" id="cond_global_bc-to-cond_xchg_start" style="stroke:#181818;stroke-width:1.0;"/><polygon fill="#181818" points="885.62,633.12,884.4414,623.3419,883.0571,628.8268,877.5722,627.4426,885.62,633.12" style="stroke:#181818;stroke-width:1.0;"/><text fill="#000000" font-family="sans-serif" font-size="13" lengthAdjust="spacing" textLength="22" x="856" y="578.3969">yes</text></g><!--link cond_global_bc to global_bc--><g id="link_cond_global_bc_global_bc"><path d="M909.48,517.18 C926.35,517.18 937.92,517.18 954.72,517.18 " fill="none" id="cond_global_bc-to-global_bc" style="stroke:#181818;stroke-width:1.0;"/><polygon fill="#181818" points="960.72,517.18,951.72,513.18,955.72,517.18,951.72,521.18,960.72,517.18" style="stroke:#181818;stroke-width:1.0;"/><text fill="#000000" font-family="sans-serif" font-size="13" lengthAdjust="spacing" textLength="16" x="926.5" y="510.2469">no</text></g><!--SRC=[dLR9Rjim4BthAoRgfGLiDywnS5qWHJSWfoAtm21eYfO4oQH0qdMC88VcK_ib7L8ojT5AKG46x9dtPkCRoYjjJYLVHujzbSDJ171BMV5DoOD8FijIAdXpSyCOfUYvomM_pt9M2AurB1jBZTgMI8kUesXHqOFcuKYSBvVNr_yOQVM-gIogq41J3l5tMahuyiWoAb8U0zLG5Id9q4fuOyN460r0SMRmTuciEDwMaXKapQGs7lYseehkzGoqeORFC6tn3g4sQ0ZkWc9ZZ69pQ4k9pXDEIYahU71E-tp5-Zbb6LWdo1sOZ8C-Sbvvo9sKHIvIeCOv1S_JR2iFojhYMA9D4QmbZXrZyz_DpC37ckhB-eb3rdDx284sC9-luQ7VTbtQq5WZfpDjwbJ-MEyaeoLmVwvFVbYznlTK5KHncfp8JYeVzwhfhhHHY2kdHVf86N-agHJ0f4X88acBxXoVVRoGSWr26aYau1wm2LM6RGXvB7c297kal2jGT7PoXSkvM4jF3xQWVa_sEN8uOXoRbngvpncWGgVhlI2XNrJfFo-_Pr1_UPd1Oh5uLJhu2UVmA3l0m1cvkNfgfIIpLq5yfBc1Wp1vEUW-aLoxDYqxXjKAwejclHu4TkOsyaDG5urEnsfe9nPombpXkXfBxH_i1ZwWMbxX-enztedh0J6SSTXZCESeuTJ9ZR9FW-U3AkmHrlDw7cpqJxwNXWTN-gpy-8TkTmslBMLuyic9nFLHNolM78NrPNCH8mbLYfxE-kePmxo3SA2Tali-T-JmV5RAGsAvhXu_6Cj36ThtPYt2ldjCt-KYrzbb_i0VJS-iHe-7naKokLRkda7GQ8U2spCuZ4O4_Kw3GXnn1jsTjTVIXa4TgtUYdUNisyCPMlGeTxkBvvbjWarRH-VbTtdl1kYHcBghrcnBUwexL4UzClTK5xTs2HjHkjZAkG8SHKK1LnzXlkp2qr9kSKMtBF3VmVuPe-f4B30tkHJwBF-MvMZJRt3NvB2spk_MxyDs-ky1pzTRy9fk9pq8vkEtCXicw83FERh5ODpdlm00]--></g></svg>